<svg width="30" height="30" viewBox="0 0 30 30" fill="none" xmlns="http://www.w3.org/2000/svg">
<g id="close.svg" clip-path="url(#clip0_10_163)">
<g id="Group">
<path id="Vector" d="M19.2031 17.6201C18.6923 17.1306 17.8837 17.1306 17.3943 17.6414C16.9048 18.1521 16.9048 18.9607 17.4155 19.4502L27.4598 29.2816C27.7152 29.5157 28.0344 29.6434 28.3536 29.6434C28.6941 29.6434 29.0133 29.5157 29.2686 29.2604C29.7581 28.7496 29.7581 27.941 29.2473 27.4515L19.2031 17.6201Z" fill="#403D38"/>
<path id="Vector_2" d="M10.1591 11.9808C10.4144 12.2362 10.7337 12.3639 11.0529 12.3639C11.3721 12.3639 11.7125 12.2362 11.9466 11.9808C12.4361 11.4914 12.4361 10.6828 11.9466 10.172L2.34924 0.553363C1.8598 0.063918 1.05115 0.063918 0.540424 0.553363C0.0509785 1.04281 0.0509785 1.85146 0.540424 2.36218L10.1591 11.9808Z" fill="#403D38"/>
<path id="Vector_3" d="M29.2687 0.553363C28.7793 0.063918 27.9706 0.063918 27.4599 0.553363L0.540424 27.4729C0.0509785 27.9623 0.0509785 28.7709 0.540424 29.2817C0.795786 29.537 1.11499 29.6647 1.43419 29.6647C1.7534 29.6647 2.09388 29.537 2.32796 29.2817L29.2687 2.36218C29.7582 1.85146 29.7582 1.04281 29.2687 0.553363Z" fill="#403D38"/>
</g>
</g>
<defs>
<clipPath id="clip0_10_163">
<rect width="29.9838" height="29.92" fill="white" transform="translate(0.00830078)"/>
</clipPath>
</defs>
</svg>
