<svg width="27" height="27" viewBox="0 0 27 27" fill="none" xmlns="http://www.w3.org/2000/svg">
<path fill-rule="evenodd" clip-rule="evenodd" d="M0 13.5C0 6.04416 6.04416 0 13.5 0C20.9559 0 27 6.04416 27 13.5V15.525C27 18.1345 24.8845 20.25 22.275 20.25C20.6493 20.25 19.2153 19.429 18.3652 18.1789C17.1371 19.4556 15.4113 20.25 13.5 20.25C9.77207 20.25 6.75 17.2279 6.75 13.5C6.75 9.77208 9.77208 6.75 13.5 6.75C17.2279 6.75 20.25 9.77207 20.25 13.5V15.525C20.25 16.6434 21.1566 17.55 22.275 17.55C23.3934 17.55 24.3 16.6434 24.3 15.525V13.5C24.3 7.53533 19.4647 2.7 13.5 2.7C7.53533 2.7 2.7 7.53533 2.7 13.5C2.7 19.4647 7.53533 24.3 13.5 24.3H18.9C19.6456 24.3 20.25 24.9044 20.25 25.65C20.25 26.3956 19.6456 27 18.9 27H13.5C6.04416 27 0 20.9559 0 13.5ZM17.55 13.5C17.55 11.2633 15.7367 9.45 13.5 9.45C11.2632 9.45 9.45 11.2632 9.45 13.5C9.45 15.7367 11.2633 17.55 13.5 17.55C15.7367 17.55 17.55 15.7367 17.55 13.5Z" fill="#F5B300"/>
</svg>
