<svg width="22" height="22" viewBox="0 0 22 22" fill="none" xmlns="http://www.w3.org/2000/svg">
<path d="M11 0.6875C6.84063 0.6875 3.4375 4.25721 3.4375 8.62019C3.4375 15.2837 10.2437 20.9159 10.5462 21.1538C10.6975 21.2332 10.8488 21.3125 11 21.3125C11.1513 21.3125 11.3025 21.2332 11.4538 21.1538C11.7563 20.9159 18.5625 15.2837 18.5625 8.62019C18.5625 4.25721 15.1594 0.6875 11 0.6875ZM11 11.7933C9.33625 11.7933 7.975 10.3654 7.975 8.62019C7.975 6.875 9.33625 5.44712 11 5.44712C12.6638 5.44712 14.025 6.875 14.025 8.62019C14.025 10.3654 12.6638 11.7933 11 11.7933Z" fill="#F5B300"/>
</svg>
