<svg width="35" height="19" viewBox="0 0 35 19" fill="none" xmlns="http://www.w3.org/2000/svg">
<g id="menu">
<path id="Vector" d="M33.1223 1H1.45821C0.652724 1 0 0.776191 0 0.5C0 0.22381 0.652724 0 1.45821 0H33.1223C33.9278 0 34.5805 0.22381 34.5805 0.5C34.5805 0.776191 33.9278 1 33.1223 1Z" fill="#403D38"/>
<path id="Vector_2" d="M33.1223 10H1.45821C0.652724 10 0 9.77619 0 9.5C0 9.22381 0.652724 9 1.45821 9H33.1223C33.9278 9 34.5805 9.22381 34.5805 9.5C34.5805 9.77619 33.9278 10 33.1223 10Z" fill="#403D38"/>
<path id="Vector_3" d="M33.1223 19H1.45821C0.652724 19 0 18.7762 0 18.5C0 18.2238 0.652724 18 1.45821 18H33.1223C33.9278 18 34.5805 18.2238 34.5805 18.5C34.5805 18.7762 33.9278 19 33.1223 19Z" fill="#403D38"/>
</g>
</svg>
