<svg width="40" height="41" viewBox="0 0 40 41" fill="none" xmlns="http://www.w3.org/2000/svg">
<g id="tg.svg">
<path id="Vector" d="M4.56265 19.0605L25.5236 10.4824C27.5939 9.59179 34.6095 6.73242 34.6095 6.73242C34.6095 6.73242 37.8439 5.48242 37.5783 8.52148C37.4923 9.77148 36.7658 14.1543 36.047 18.8887L33.797 32.9277C33.797 32.9277 33.6173 34.9824 32.0861 35.3418C30.5548 35.7012 28.0392 34.0918 27.5939 33.7324C27.2345 33.4668 20.8439 29.4434 18.508 27.4746C17.8752 26.9355 17.1642 25.8652 18.5939 24.6152C21.8283 21.6699 25.7033 18.0059 28.0392 15.6777C29.1173 14.6074 30.1955 12.1074 25.7033 15.1387L13.0158 23.6152C13.0158 23.6152 11.5783 24.5059 8.87515 23.7012C6.17984 22.8965 3.02359 21.8262 3.02359 21.8262C3.02359 21.8262 0.875153 20.4902 4.56265 19.0605Z" fill="#222222"/>
</g>
</svg>
