<?xml version="1.0" encoding="utf-8"?>
<!-- Generator: Adobe Illustrator 28.0.0, SVG Export Plug-In . SVG Version: 6.00 Build 0)  -->
<svg version="1.1" id="Слой_1" xmlns="http://www.w3.org/2000/svg" xmlns:xlink="http://www.w3.org/1999/xlink" x="0px" y="0px"
	 viewBox="0 0 120 120" style="enable-background:new 0 0 120 120;" xml:space="preserve">
<style type="text/css">
	.st0{fill:#FFF1CF;}
	.st1{fill:#F9AE15;}
	.st2{fill:#FECC04;}
	.st3{fill:#FAB517;}
	.st4{fill:#FFD014;}
	.st5{fill:#FFCF0E;}
	.st6{fill:#FEFCF7;}
	.st7{fill:#AD6841;}
	.st8{fill:#8D5144;}
	.st9{fill:#EC6470;}
	.st10{fill:#EC646F;}
	.st11{fill:#E94A58;}
	.st12{fill:#E94B58;}
</style>
<g>
	<path class="st0" d="M118.99,60.03c0.33,11.26-5.33,18.4-14.34,22.81c-5.65,2.76-8.02,7.25-9.2,12.73
		c-1.42,6.56-4.72,11.76-9.89,15.95c-4.02,3.26-8.47,5.47-13.56,5.96c-7.04,0.67-13.82-0.1-19.48-5.05
		c-3.69-3.21-7.33-6.48-11.22-9.44c-5.51-4.2-11.65-6.77-18.79-6.9C17.68,96,12.79,95.4,8.71,92.35
		c-7.5-5.62-10.01-15.45-5.38-23.72c1.91-3.42,4.18-6.66,5.65-10.31c2.17-5.39,1.61-10.8,0.03-16.24c-1.14-3.82-0.18-6.17,3.18-8.4
		c3.82-2.54,7.78-4.72,12.62-4.53c4.68,0.18,7.14-3.11,9.61-6.35c1.64-2.18,2.67-4.71,4.12-7.01C43.24,8.36,49.97,3.68,58.67,2.65
		c7.16-0.85,13.91,0.78,19.24,6.15c1.46,1.48,2.66,3.23,3.62,5.05c3.45,6.6,9.11,10.65,15.45,14.07
		c7.13,3.85,13.31,8.86,18.24,15.34c1.48,1.96,2.09,4.18,2.48,6.54C118.27,53.4,119.14,56.92,118.99,60.03z M84.33,80.55l-0.03,0.03
		c0.13-0.12,0.25-0.25,0.39-0.37c10.68-11.95,10.04-30.71-1.45-42.2C71.65,26.4,52.9,25.72,40.91,36.44
		c-0.12,0.13-0.25,0.25-0.37,0.39l0.03-0.03c-0.15,0.12-0.3,0.24-0.43,0.37c-0.09,0.09-0.18,0.18-0.27,0.27
		c-9.17,7.92-12.32,22.62-7.38,34.4c5.69,13.53,19.6,21.23,34.25,18.69c6.63-1.15,12.41-4.17,16.97-9.26
		c0.09-0.09,0.18-0.18,0.27-0.27C84.08,80.84,84.2,80.7,84.33,80.55z M19.92,75.91c-0.07-0.15-0.15-0.31-0.24-0.46
		c-0.82-0.24-1.63-0.58-2.46-0.72c-1.48-0.22-2.3-0.97-2.61-2.46c-0.25-1.24-0.75-2.42-1.25-4.02c-0.6,2.03-0.84,3.75-1.58,5.2
		c-0.84,1.64-3.12,1-4.54,2.18c0.84,0.73,1.78,1,2.67,1.28c1.33,0.43,2.11,1.18,2.36,2.61c0.21,1.18,0.67,2.3,1.02,3.45
		C14.11,79.31,15.56,76.37,19.92,75.91z M100.63,53.37c0.66-3.87,2.35-6.66,6.51-7.42c-1.12-0.51-2.02-0.88-2.96-1.03
		c-1.34-0.21-1.96-0.93-2.24-2.21c-0.28-1.25-0.78-2.46-1.31-4.14c-0.42,1.39-0.87,2.35-0.97,3.33c-0.21,2-1.37,2.84-3.18,3.21
		c-0.72,0.15-1.54,0.18-2.39,1.15C98.61,46.58,100.03,49.5,100.63,53.37z M22.35,80.37c-0.3,1.51-1.05,2.51-2.66,3.02
		c2,0.12,2.12,1.69,2.79,3.3c0.27-1.84,1.05-2.91,2.58-3.5C23.09,83.09,22.94,81.58,22.35,80.37z M110,59.92
		c0.06-1.78,1.2-2.51,3.03-3.26c-2.26-0.01-2.64-1.43-3.2-2.76c-0.24,1.6-0.91,2.61-2.58,2.88C108.88,57.24,109.53,58.39,110,59.92z
		"/>
	<path class="st1" d="M18.02,26.78c-6.66,0.01-12.11-5.44-12.13-12.11C5.88,7.98,11.3,2.52,17.96,2.5
		c6.69-0.03,12.17,5.36,12.2,12.03C30.21,21.29,24.8,26.76,18.02,26.78z M15.3,15.99c1.81-2.54,3.35-4.71,5.2-7.29
		c-1.42,0.31-2.51-0.3-3.14,0.48c-1.82,2.24-3.57,4.54-5.17,6.95c-0.78,1.18-0.13,1.97,1.33,1.99c1.15,0.01,2.32,0.06,3.47-0.01
		c0.96-0.06,1.43,0.24,1.27,1.25c-0.16,1.05,0.39,1.24,1.3,1.22c0.85-0.01,1.52-0.04,1.34-1.17c-0.13-0.93,0.19-1.4,1.22-1.3
		c0.82,0.09,0.72-0.55,0.72-1.06c0-0.51,0.1-1.15-0.7-1.09c-1.03,0.07-1.33-0.4-1.24-1.34c0.09-0.84-0.48-0.97-1.11-0.88
		c-0.51,0.06-1.43-0.33-1.37,0.55C18.63,16.71,16.93,15.74,15.3,15.99z"/>
	<path class="st2" d="M83.96,80.99c-0.09,0.09-0.18,0.18-0.27,0.27c-0.61-0.12-1.08,0.19-1.58,0.49c-6.66,3.93-13.85,5.68-21.5,4.26
		c-7.57-1.4-14.1-4.87-18.9-11.1c-7.68-9.98-9.14-20.75-4.2-32.4c0.73-1.73,2.2-3.11,2.35-5.09c0.09-0.09,0.18-0.18,0.27-0.27
		c0.15-0.12,0.28-0.24,0.43-0.37l-0.03,0.03c0.12-0.13,0.25-0.25,0.37-0.39c12-10.74,30.73-10.04,42.33,1.57
		c11.49,11.5,12.13,30.26,1.45,42.2c-0.13,0.12-0.25,0.25-0.39,0.37l0.03-0.03C84.2,80.7,84.08,80.84,83.96,80.99z M53.41,56.95
		c1.33-1.7,2.18-3.63,2.66-5.71c0.55-2.41-0.3-4.62-2.14-5.71c-1.97-1.18-3.85-0.87-5.87,1.08c-0.57,0.54-1.15,0.82-1.85,0.57
		c-1-0.37-1.91-0.06-2.85,0.18c-3.29,1.78-3.82,5.12-1.27,7.83c1.75,1.85,3.97,2.9,6.3,3.73C51.33,59.97,51.9,59.73,53.41,56.95z
		 M74.26,58.7c2.57-0.66,4.78-1.96,6.48-3.97c2.14-2.54,1.31-6.78-1.75-7.29c-2.75-0.46-5.15-1.33-7.54-2.55
		c-3.27-0.18-5.18,1.64-5.23,4.9c-0.04,2.99,1.43,5.39,2.99,7.72C70.92,60.06,71.34,60.12,74.26,58.7z M45.9,70.8
		c4.66,8.46,15.12,11.62,23.54,7.02c2.94-1.61,5.56-3.69,6.86-6.99c1-0.81,1.33-1.97,1.73-3.11c0.51-1.45,0.09-2-1.4-1.72
		c-2.54,0.46-5.09,0.88-7.66,1.15c-5.17,0.54-10.34,0.55-15.51,0c-2.57-0.27-5.12-0.69-7.66-1.15c-1.49-0.28-1.9,0.27-1.4,1.72
		C44.76,68.81,45.18,69.89,45.9,70.8z"/>
	<path class="st1" d="M39.86,37.43c-0.15,1.99-1.61,3.38-2.35,5.09c-4.94,11.65-3.5,22.42,4.2,32.4c4.8,6.23,11.32,9.69,18.9,11.1
		c7.66,1.42,14.83-0.33,21.5-4.26c0.51-0.3,0.97-0.61,1.58-0.49c-4.56,5.11-10.32,8.11-16.97,9.26
		c-14.65,2.54-28.56-5.15-34.25-18.69C27.52,60.04,30.67,45.33,39.86,37.43z"/>
	<path class="st3" d="M19.92,75.91c-4.36,0.46-5.81,3.41-6.66,7.07c-0.34-1.15-0.81-2.29-1.02-3.45c-0.25-1.43-1.02-2.18-2.36-2.61
		c-0.9-0.28-1.84-0.57-2.67-1.28c1.42-1.2,3.7-0.54,4.54-2.18c0.75-1.45,0.99-3.17,1.58-5.2c0.51,1.6,1,2.79,1.25,4.02
		c0.31,1.49,1.14,2.24,2.61,2.46c0.84,0.13,1.64,0.48,2.46,0.72C19.77,75.59,19.84,75.76,19.92,75.91z"/>
	<path class="st3" d="M100.63,53.37c-0.6-3.87-2.02-6.8-6.54-7.11c0.85-0.97,1.67-1,2.39-1.15c1.81-0.36,2.97-1.21,3.18-3.21
		c0.1-0.99,0.55-1.93,0.97-3.33c0.54,1.67,1.03,2.88,1.31,4.14c0.28,1.28,0.91,2,2.24,2.21c0.94,0.15,1.84,0.52,2.96,1.03
		C102.97,46.7,101.29,49.5,100.63,53.37z"/>
	<path class="st4" d="M22.35,80.37c0.58,1.21,0.73,2.72,2.7,2.82c-1.54,0.58-2.32,1.66-2.58,3.5c-0.66-1.61-0.79-3.18-2.79-3.3
		C21.31,82.88,22.05,81.88,22.35,80.37z"/>
	<path class="st5" d="M110,59.92c-0.46-1.54-1.12-2.69-2.75-3.14c1.67-0.27,2.33-1.28,2.58-2.88c0.55,1.33,0.94,2.73,3.2,2.76
		C111.18,57.41,110.06,58.15,110,59.92z"/>
	<path class="st1" d="M40.91,36.44c-0.12,0.13-0.25,0.25-0.37,0.39C40.65,36.7,40.79,36.56,40.91,36.44z"/>
	<path class="st1" d="M40.56,36.78c-0.15,0.12-0.28,0.24-0.43,0.37C40.28,37.04,40.41,36.92,40.56,36.78z"/>
	<path class="st1" d="M84.3,80.58c0.13-0.12,0.25-0.25,0.39-0.37C84.56,80.33,84.42,80.46,84.3,80.58z"/>
	<path class="st1" d="M83.96,80.99c0.12-0.15,0.24-0.28,0.37-0.43C84.2,80.7,84.08,80.84,83.96,80.99z"/>
	<path class="st6" d="M15.3,15.99c1.63-0.25,3.33,0.72,3.14-1.73c-0.07-0.87,0.87-0.48,1.37-0.55c0.64-0.09,1.2,0.06,1.11,0.88
		c-0.09,0.93,0.21,1.42,1.24,1.34c0.81-0.06,0.7,0.58,0.7,1.09c0,0.51,0.1,1.15-0.72,1.06c-1.03-0.1-1.36,0.37-1.22,1.3
		c0.16,1.12-0.51,1.15-1.34,1.17c-0.91,0.01-1.46-0.16-1.3-1.22c0.15-1-0.31-1.31-1.27-1.25c-1.15,0.07-2.32,0.03-3.47,0.01
		c-1.48,0.01-2.12-0.79-1.34-1.96c1.6-2.41,3.35-4.71,5.15-6.95c0.64-0.79,1.73-0.16,3.14-0.48C18.65,11.29,17.11,13.44,15.3,15.99z
		"/>
	<path class="st7" d="M76.29,70.83c-1.3,3.3-3.9,5.38-6.86,6.99c-8.43,4.6-18.88,1.43-23.54-7.02c5.03,0.42,10.04,1.12,15.12,1.12
		C66.15,71.92,71.22,71.28,76.29,70.83z"/>
	<path class="st8" d="M76.29,70.83c-5.08,0.45-10.14,1.09-15.28,1.09c-5.08,0-10.08-0.72-15.12-1.12c-0.72-0.91-1.14-1.99-1.51-3.08
		c-0.49-1.45-0.09-1.99,1.4-1.72c2.54,0.46,5.09,0.88,7.66,1.15c5.17,0.55,10.34,0.54,15.51,0c2.57-0.27,5.12-0.69,7.66-1.15
		c1.49-0.28,1.91,0.27,1.4,1.72C77.62,68.86,77.3,70.02,76.29,70.83z"/>
	<path class="st9" d="M71.45,44.88c2.39,1.22,4.8,2.11,7.54,2.55c3.08,0.51,3.88,4.75,1.75,7.29c-1.7,2.03-3.91,3.32-6.48,3.97
		c-2.29-2.29-3.75-5.03-4.51-8.16C69.21,48.35,70.16,46.55,71.45,44.88z"/>
	<path class="st10" d="M43.36,47.36c0.94-0.25,1.85-0.55,2.85-0.18c0.69,0.25,1.28-0.03,1.85-0.57c2.03-1.94,3.9-2.26,5.87-1.08
		c1.84,1.09,2.67,3.32,2.14,5.71c-0.48,2.09-1.33,4.02-2.66,5.71c-1.67-0.39-3.29-1-4.83-1.75C45.33,53.64,42.7,51.57,43.36,47.36z"
		/>
	<path class="st11" d="M43.36,47.36c-0.66,4.21,1.97,6.27,5.23,7.84c1.54,0.75,3.14,1.36,4.83,1.75c-1.51,2.78-2.08,3.02-5.02,1.97
		c-2.33-0.84-4.56-1.87-6.3-3.73C39.53,52.47,40.07,49.14,43.36,47.36z"/>
	<path class="st12" d="M71.45,44.88c-1.28,1.67-2.23,3.48-1.69,5.68c0.76,3.12,2.23,5.87,4.51,8.16c-2.93,1.4-3.35,1.34-5.05-1.21
		c-1.57-2.35-3.03-4.74-2.99-7.72C66.27,46.52,68.18,44.7,71.45,44.88z"/>
</g>
</svg>
