<?xml version="1.0" encoding="utf-8"?>
<!-- Generator: Adobe Illustrator 28.0.0, SVG Export Plug-In . SVG Version: 6.00 Build 0)  -->
<svg version="1.1" id="Слой_1" xmlns="http://www.w3.org/2000/svg" xmlns:xlink="http://www.w3.org/1999/xlink" x="0px" y="0px"
	 viewBox="0 0 120 120" style="enable-background:new 0 0 120 120;" xml:space="preserve">
<style type="text/css">
	.st0{fill:#FCF0CE;}
	.st1{fill:#FDF0D0;}
	.st2{fill:#241F1E;}
	.st3{fill:#F8AD11;}
	.st4{fill:#FDCC05;}
	.st5{fill:#FFFFFF;}
</style>
<g>
	<path class="st0" d="M39.03,101.6c-1.31-0.19-1.88-1.46-2.94-2.05c-3.9-2.14-8.07-3.27-12.5-3.49c-4.06-0.21-8.17-0.4-11.96-2.15
		c-5.56-2.57-8.86-7.02-10.2-12.9c-1.21-5.38,0.28-10.2,3.2-14.74c2.51-3.93,4.88-7.93,5.59-12.7c0.52-3.5-0.07-6.86-0.87-10.22
		c-0.4-1.69-1.4-3.26-0.75-5.18c0.61-1.81,1.72-3.21,3.18-4.2c3.38-2.29,6.84-4.51,11.11-4.79c-0.43,1.3-0.43,2.57-0.09,3.9
		c0.9,3.52,1.7,7.08,2.54,10.6c0.19,0.79,0.39,1.57,0.58,2.34c0.1,0.39,0.36,0.58,0.76,0.48c0.33-0.09,0.45-0.37,0.4-0.67
		c-0.06-0.4-0.16-0.79-0.27-1.18c-0.94-3.99-1.9-7.98-2.84-11.96c-0.3-1.27-0.43-2.51,0.64-3.54c2-0.34,4.35,0.21,5.59-2.12
		l0.1,0.04c0.18-0.07,0.36-0.15,0.52-0.22c12.28-2.94,24.54-5.88,36.82-8.81c3.44-0.82,4.76,0.01,5.59,3.48
		c2.4,10.04,4.79,20.07,7.18,30.11c0.54,2.26,0.54,2.26-1.7,2.57c-1.84-7.65-3.72-15.26-5.48-22.93c-0.34-1.52-0.94-2.12-2.45-1.6
		c-0.12-0.45-0.25-0.88-0.37-1.33c-0.67-2.69-1.18-3-3.9-2.34c-11.62,2.76-23.26,5.53-34.88,8.3c-2.7,0.64-3.05,1.21-2.4,3.85
		c4.12,17.3,8.23,34.59,12.35,51.89c0.85,3.6,0.55,4.82,5.36,3.55c0.06-0.01,0.12,0,0.18,0c0.18,1.69,1,1.93,2.6,1.52
		c3.97-1.02,7.93-2.12,11.99-2.78c-0.24,0.45-0.49,0.88-0.72,1.34c-0.84,1.7-0.72,3.36,0.46,4.84c1.14,1.42,2.66,1.96,4.45,1.55
		c1.88-0.42,2.97-1.67,3.36-3.51c0.48-2.26-0.66-3.96-3.39-5.27c3.81-0.96,7.62-1.9,11.43-2.85c3.84,2.37,7.69,4.67,12.34,5.08
		c0.84,0.07,0.84,0.61,0.85,1.21c0.04,1.93-1.15,3.09-3.81,3.73c-9.81,2.34-19.63,4.7-29.44,6.99c-3.69,0.87-7.33,2.02-11.11,2.46
		c-1.43-1.9-3.33-3.23-5.26-4.54c-0.57-1.42-0.82-2.91-1.17-4.39c-1.06-4.67-2.2-9.32-3.3-13.98c-1.55-6.51-3.09-13.02-4.65-19.54
		c-0.12-0.49-0.07-1.37-0.91-1.18c-0.82,0.19-0.4,0.94-0.28,1.46c0.37,1.69,0.79,3.38,1.19,5.05
		C34.19,81.05,36.61,91.33,39.03,101.6z M16.27,83.92c0.55-1.63,0.85-3.42,1.72-4.85c0.93-1.52,3.15-1.37,4.63-2.6
		c-1.02-0.3-1.88-0.67-2.76-0.81c-1.37-0.21-2.09-0.9-2.4-2.26c-0.28-1.28-0.79-2.52-1.19-3.79c-0.72,3.7-1.94,6.72-6.68,6.92
		C14.01,77.29,15.6,80.14,16.27,83.92z M56.27,23.82c-0.37,0.07-0.55,0.12-0.72,0.15c-5.11,1.22-10.22,2.43-15.32,3.67
		c-0.51,0.12-1.37,0.09-1.17,0.91c0.19,0.81,0.94,0.42,1.46,0.3c3.26-0.76,6.51-1.55,9.77-2.33c1.97-0.46,3.93-0.94,5.9-1.4
		c0.4-0.09,0.84-0.21,0.76-0.75C56.89,23.85,56.51,23.77,56.27,23.82z M25.09,80.9c-0.28,1.93-0.9,3.03-2.54,3.36
		c1.72,0.39,2.24,1.61,2.7,3.12c0.09-1.7,1.18-2.52,2.52-3.26C25.89,84.1,25.71,82.62,25.09,80.9z M30.76,61.11
		c-0.37-1.52-0.67-2.87-1.02-4.2c-0.09-0.36-0.37-0.64-0.76-0.54c-0.36,0.09-0.55,0.39-0.46,0.81c0.31,1.34,0.63,2.67,0.96,4.02
		c0.09,0.36,0.27,0.67,0.69,0.61C30.65,61.74,30.8,61.38,30.76,61.11z"/>
	<path class="st1" d="M33.43,24.82c-0.01-0.16-0.12-0.4-0.04-0.51c3.67-4.7,5.59-10.57,10.2-14.68c9.01-8.02,21.66-9.69,31.87-3.06
		c1.87,1.21,3.2,2.96,4.42,4.78c1.67,2.48,3.3,5,5,7.45c2.54,3.67,6.42,5.74,10.14,7.87c5.96,3.44,11.59,7.23,16.49,12.13
		c3.81,3.82,6.17,8.2,6.75,13.58c0.33,3.03,0.69,6.03,0.73,9.1c0.09,5.66-1.9,10.44-5.54,14.64c-0.79,0.91-1.49,1.88-2.24,2.84
		c-1.08-0.94-2.52-1.54-2.9-3.14c-1.21-5.26-3.97-9.66-7.45-13.68c-3.12-3.6-7-6.36-10.46-9.59c-2.75-2.57-6.14-2.61-7.72,1.27
		c-0.07,0.18-0.25,0.3-0.36,0.43c-2.72-11.41-5.39-22.81-8.14-34.19c-0.66-2.7-2.99-4.03-5.71-3.47c-1.93,0.4-3.82,0.88-5.74,1.33
		C52.97,20.22,43.2,22.52,33.43,24.82z M101.28,38.09c-1.06-0.3-1.87-0.6-2.69-0.73c-1.55-0.25-2.4-1.05-2.67-2.66
		c-0.19-1.15-0.7-2.24-1.21-3.79c-0.52,1.78-1.02,3.12-1.3,4.5c-0.19,0.93-0.64,1.37-1.52,1.6c-1.15,0.28-2.27,0.67-3.39,1.02
		c-0.09,0.15-0.18,0.28-0.25,0.43c4.29,0.48,5.94,3.27,6.44,7.11c0.76-1.73,1.03-3.48,1.88-4.85
		C97.47,39.23,99.6,39.29,101.28,38.09z M106.6,49.12c-1.9-0.09-2.05-1.67-2.82-3.36c-0.03,2.08-0.85,3-2.39,3.44
		c1.73,0.33,2.17,1.61,2.57,3.52C104.46,50.83,104.88,49.52,106.6,49.12z"/>
	<path class="st2" d="M33.43,24.82c9.77-2.3,19.54-4.6,29.3-6.9c1.91-0.45,3.81-0.94,5.74-1.33c2.72-0.57,5.05,0.76,5.71,3.47
		c2.76,11.38,5.44,22.78,8.14,34.19c0.1-0.12,0.28-0.25,0.36-0.43c1.58-3.88,4.96-3.85,7.72-1.27c3.45,3.23,7.33,5.97,10.46,9.59
		c3.48,4.03,6.24,8.44,7.45,13.68c0.37,1.6,1.82,2.2,2.9,3.14c1.18,1,2.33,2.06,3.55,3c0.76,0.58,0.64,1,0.1,1.64
		c-3.87,4.57-7.72,9.13-11.52,13.74c-0.72,0.87-1.18,0.75-1.93,0.1c-1.73-1.51-3.52-2.94-5.3-4.39c-1.4-0.43-2.61,0.52-3.97,0.52
		c-0.52,0-0.31,0.48-0.34,0.79c-0.21,3.2-1.3,4.47-4.48,5.21c-3.36,0.79-6.74,1.6-10.1,2.4c-9.86,2.37-19.72,4.75-29.57,7.12
		c-0.67,0.13-1.34,0.28-2.02,0.4c-2.36,0.43-4.7-0.94-5.39-3.26c-0.46-1.54-0.81-3.11-1.21-4.66c-2.42-10.28-4.84-20.55-7.24-30.83
		c-0.4-1.69-0.82-3.36-1.19-5.05c-0.12-0.51-0.54-1.27,0.28-1.46c0.84-0.19,0.79,0.69,0.91,1.18c1.57,6.51,3.11,13.02,4.65,19.54
		c1.11,4.66,2.24,9.31,3.3,13.98c0.34,1.48,0.6,2.97,1.17,4.39c0.16,0.84,0.25,1.7,0.52,2.49c0.69,2.06,2.67,2.9,4.75,2.05
		c3.79-0.45,7.42-1.6,11.11-2.46c9.83-2.29,19.63-4.65,29.44-6.99c2.67-0.64,3.85-1.81,3.81-3.73c-0.01-0.6-0.01-1.14-0.85-1.21
		c-4.65-0.39-8.5-2.7-12.34-5.08c-1.25-1.27-2.58-1.84-4.44-1.12c-1.54,0.6-3.23,0.79-4.84,1.19c-6.98,1.69-13.94,3.39-20.91,5.09
		c-0.06,0-0.12-0.01-0.18,0c-4.81,1.27-4.5,0.04-5.36-3.55c-4.12-17.3-8.23-34.59-12.35-51.89c-0.63-2.64-0.3-3.21,2.4-3.85
		c11.62-2.78,23.26-5.54,34.88-8.3c2.72-0.64,3.23-0.33,3.9,2.34c0.1,0.45,0.24,0.9,0.37,1.33c2,8.59,4,17.16,6.03,25.84
		c0.76-0.54,1.33-0.93,1.9-1.31c2.23-0.31,2.24-0.31,1.7-2.57c-2.39-10.04-4.78-20.07-7.18-30.11c-0.84-3.48-2.15-4.3-5.59-3.48
		c-12.28,2.93-24.54,5.87-36.82,8.81c-0.22-0.03-0.42-0.01-0.52,0.22L30.23,27c-1.93,0.55-4.18,0.22-5.59,2.12
		c-1.06,1.03-0.94,2.27-0.64,3.54c0.94,3.99,1.9,7.98,2.84,11.96c0.09,0.39,0.21,0.78,0.27,1.18c0.04,0.3-0.09,0.58-0.4,0.67
		c-0.4,0.12-0.66-0.07-0.76-0.48c-0.21-0.78-0.4-1.57-0.58-2.34c-0.84-3.54-1.64-7.08-2.54-10.6c-0.34-1.34-0.34-2.61,0.09-3.9
		c0.99-1.61,2.42-2.45,4.27-2.81c1.84-0.34,3.64-0.91,5.47-1.37c0.28,0.04,0.57,0.03,0.79-0.19L33.43,24.82z M102.66,84.63
		c-0.1,0.12-0.21,0.24-0.31,0.36c-1.67,2.05-3.32,4.12-5.05,6.12c-0.7,0.81-0.48,1.19,0.24,1.75c1.31,1.03,2.64,2.06,3.84,3.23
		c0.82,0.79,1.21,0.61,1.85-0.18c2.63-3.21,5.3-6.39,7.99-9.56c3.14-3.69,3.15-3.69-0.85-6.62c-0.52-0.45-1.11-0.84-1.54-1.36
		c-0.54-0.66-0.87-0.52-1.31,0.06c-1.51,1.96-3.03,3.88-4.56,5.83l0.01-0.01C102.87,84.37,102.75,84.5,102.66,84.63L102.66,84.63z
		 M74.53,84.31c-0.34,0.6,0.13,0.64,0.51,0.76c3.63,3.09,7.59,5.6,12.23,6.89c1.91,0.54,3.87,0.61,5.84,0.31
		c1.42-0.21,2.54-0.78,3.47-1.99c3.23-4.17,6.54-8.27,9.89-12.34c0.72-0.87,0.94-1.64,0.57-2.66c-1.02-2.66-1.93-5.33-3.48-7.77
		c-4-6.27-9.81-10.66-15.44-15.26c-0.97-0.79-2.08-0.6-3.06,0.12c-1,0.73-1.28,1.73-0.97,2.91c0.24,0.87,0.75,1.54,1.45,2.11
		c1.12,0.91,2.23,1.84,3.32,2.79c0.36,0.31,1.03,0.6,0.45,1.21c-0.48,0.51-0.84-0.07-1.15-0.33c-2-1.66-3.97-3.35-5.97-5
		c-0.93-0.78-1.93-1.31-3.14-0.54c-2.27,1.27-2.23,3.39,0.12,5.26c1.03,0.91,2.03,1.87,3.12,2.7c0.76,0.58,0.6,1.06,0.1,1.6
		c-1.73-1.43-3.47-2.87-5.2-4.3c-0.45-0.54-0.99-0.97-1.61-1.24c-1.22-0.52-2.3-0.12-3.08,0.82c-0.75,0.91-1.12,1.97-0.03,2.99
		c-0.06,1,0.58,1.37,1.39,1.58l-0.04,0.04c0.72,1.15,1.96,1.75,2.87,2.67c0.3,0.3,0.91,0.54,0.37,1.08
		c-0.42,0.4-0.64,0.36-1.19-0.13C70.62,64.08,65.29,59.68,60,55.24c-1.82-1.73-3.35-1.93-4.63-0.6c-1.21,1.24-0.82,3.21,0.94,4.78
		c0.51,0.45,1.06,0.87,1.58,1.3c0.84,0.66,1.7,1.25,2.49,1.96c3.81,3.39,7.71,6.66,11.68,9.87c2.3,1.85,4.51,3.81,6.74,5.74
		c0.27,0.24,0.78,0.51,0.46,0.96c-0.34,0.49-0.78,0.27-1.18-0.07c-0.79-0.67-1.6-1.31-2.39-1.96c-0.99-0.85-1.97-1.7-3.12-2.7
		c-0.3,1.34-0.55,2.45-0.79,3.54c-0.75,2.63,0.63,5.75,2.78,6.29L74.53,84.31z M46.83,92.19c8.92-2.09,17.85-4.18,27.08-6.35
		c-2.72-2.37-4.02-4.93-3.32-8.23c0.18-0.61,0.3-1.24,0.55-1.81c0.69-1.51,0.18-2.49-1.09-3.47c-2.29-1.75-4.45-3.67-6.66-5.53
		c-2.75-2.3-5.51-4.56-8.2-6.92c-1.9-1.66-2.18-4.32-0.78-5.87c1.6-1.78,3.78-1.84,5.83-0.15c0.84,0.69,1.61,1.45,2.6,1.93
		c2.21,2.42,4.91,4.3,7.39,6.41c0.79,0.67,0.36-0.31,0.42-0.6c1.03-2.91,2.3-3.66,5.6-3.23c-0.22-0.97-0.43-1.9-0.66-2.84
		c-2.05-8.48-4.11-16.97-6.15-25.45c-0.48-3.39-0.48-3.39-3.67-2.63c-11.07,2.64-22.13,5.29-33.2,7.92c-2.52,0.6-2.52,0.6-1.94,3.02
		c4.09,17.19,8.2,34.37,12.29,51.56C43.69,93.16,43.71,93.16,46.83,92.19z"/>
	<path class="st1" d="M47.65,109.1c9.86-2.37,19.72-4.75,29.57-7.12c3.36-0.81,6.72-1.61,10.1-2.4c3.17-0.75,4.26-2.02,4.48-5.21
		c0.01-0.31-0.18-0.79,0.34-0.79c1.34,0,2.57-0.96,3.97-0.52c-0.99,2.93-1.28,6.11-2.78,8.86c-4.42,8.18-10.99,13.59-20.28,15.31
		c-4.72,0.87-9.38,0.37-13.95-1.03c-1.9-0.58-3.58-1.51-5.15-2.72C51.93,111.91,50.08,110.07,47.65,109.1z"/>
	<path class="st3" d="M18.06,26.73c-6.65,0.03-12.13-5.42-12.14-12.08C5.89,7.98,11.29,2.5,17.96,2.47
		c6.69-0.04,12.19,5.35,12.23,11.99C30.23,21.23,24.83,26.71,18.06,26.73z M19.75,14.78c0-0.75,0-1.49,0-2.24
		c0-3.84,0-3.82-3.81-3.72c-0.72,0.01-1.36-0.07-1.34,1.02c0,0.96,0.25,1.43,1.25,1.27c1.09-0.16,1.18,0.45,1.16,1.31
		c-0.04,2.3,0.04,4.62-0.04,6.92c-0.03,1.08,0.42,1.21,1.31,1.19c0.91-0.01,1.55-0.01,1.46-1.25
		C19.66,17.78,19.75,16.27,19.75,14.78z"/>
	<path class="st1" d="M33.4,24.8c-0.22,0.22-0.49,0.24-0.79,0.19C32.83,24.7,33.09,24.62,33.4,24.8z"/>
	<path class="st4" d="M47.16,93.58c6.98-1.7,13.94-3.39,20.91-5.09c1.61-0.39,3.32-0.6,4.84-1.19c1.85-0.72,3.18-0.15,4.44,1.12
		c-3.81,0.96-7.62,1.9-11.43,2.85c-1.51-0.13-2.88,0.33-4.17,1.05c-4.06,0.67-8.02,1.76-11.99,2.78
		C48.16,95.51,47.32,95.27,47.16,93.58z"/>
	<path class="st3" d="M78.74,54.2c-0.57,0.39-1.12,0.78-1.9,1.31c-2.03-8.68-4.03-17.25-6.03-25.84c1.51-0.52,2.09,0.07,2.45,1.6
		C75.03,38.92,76.91,46.55,78.74,54.2z"/>
	<path class="st3" d="M16.27,83.92c-0.67-3.78-2.24-6.65-6.69-7.38c4.73-0.21,5.96-3.23,6.68-6.92c0.4,1.25,0.9,2.51,1.19,3.79
		c0.3,1.36,1.02,2.06,2.4,2.26c0.9,0.13,1.75,0.49,2.76,0.81c-1.46,1.22-3.7,1.08-4.63,2.6C17.1,80.51,16.81,82.29,16.27,83.92z"/>
	<path class="st2" d="M61.73,92.31c1.3-0.73,2.66-1.18,4.17-1.05c2.73,1.31,3.87,3.02,3.39,5.27c-0.39,1.84-1.49,3.09-3.36,3.51
		c-1.79,0.4-3.33-0.13-4.45-1.55c-1.18-1.48-1.31-3.14-0.46-4.84C61.24,93.21,61.49,92.76,61.73,92.31z M68.13,95.67
		c-0.01-1.72-1.54-3.15-3.27-3.11c-1.73,0.04-3.11,1.55-3.06,3.33c0.04,1.66,1.49,3.03,3.18,3.02
		C66.71,98.9,68.14,97.42,68.13,95.67z"/>
	<path class="st2" d="M56.27,23.82c0.24-0.04,0.63,0.03,0.69,0.55c0.07,0.54-0.36,0.66-0.76,0.75c-1.97,0.46-3.93,0.94-5.9,1.4
		c-3.26,0.78-6.51,1.55-9.77,2.33c-0.54,0.12-1.27,0.51-1.46-0.3c-0.21-0.82,0.64-0.79,1.17-0.91c5.11-1.24,10.22-2.45,15.32-3.67
		C55.71,23.94,55.89,23.91,56.27,23.82z"/>
	<path class="st5" d="M46.15,107.89c-2.08,0.85-4.05,0.03-4.75-2.05c-0.27-0.81-0.36-1.66-0.52-2.49
		C42.82,104.66,44.74,105.99,46.15,107.89z"/>
	<path class="st4" d="M25.09,80.9c0.63,1.72,0.79,3.2,2.69,3.23c-1.34,0.72-2.43,1.55-2.52,3.26c-0.46-1.49-0.99-2.72-2.7-3.12
		C24.2,83.93,24.8,82.83,25.09,80.9z"/>
	<path class="st2" d="M30.76,61.11c0.04,0.27-0.1,0.63-0.6,0.69c-0.42,0.06-0.6-0.27-0.69-0.61c-0.33-1.33-0.64-2.67-0.96-4.02
		c-0.1-0.42,0.1-0.72,0.46-0.81c0.39-0.1,0.67,0.19,0.76,0.54C30.08,58.24,30.4,59.59,30.76,61.11z"/>
	<path class="st5" d="M24.62,29.15c1.4-1.9,3.66-1.57,5.59-2.12C28.96,29.36,26.62,28.8,24.62,29.15z"/>
	<path class="st5" d="M30.32,27.07c0.1-0.24,0.31-0.25,0.52-0.22C30.67,26.92,30.49,27,30.32,27.07z"/>
	<path class="st3" d="M101.28,38.09c-1.69,1.19-3.79,1.12-4.73,2.61c-0.85,1.37-1.12,3.12-1.88,4.85c-0.49-3.84-2.15-6.62-6.44-7.11
		c0.09-0.15,0.18-0.28,0.25-0.43c1.14-0.34,2.26-0.73,3.39-1.02c0.88-0.22,1.33-0.69,1.52-1.6c0.3-1.37,0.78-2.7,1.3-4.5
		c0.51,1.55,1.02,2.64,1.21,3.79c0.27,1.6,1.12,2.4,2.67,2.66C99.42,37.51,100.22,37.81,101.28,38.09z"/>
	<path class="st4" d="M106.6,49.12c-1.72,0.42-2.14,1.73-2.63,3.58c-0.4-1.9-0.84-3.18-2.57-3.52c1.54-0.43,2.36-1.36,2.39-3.44
		C104.55,47.43,104.7,49.03,106.6,49.12z"/>
	<path class="st0" d="M79.03,55.49c1.21-0.78,2.21-0.22,3.14,0.54c2,1.66,3.97,3.35,5.97,5c0.31,0.27,0.67,0.84,1.15,0.33
		c0.57-0.6-0.1-0.9-0.45-1.21c-1.09-0.94-2.2-1.88-3.32-2.79c-0.7-0.57-1.21-1.24-1.45-2.11c-0.31-1.18-0.03-2.18,0.97-2.91
		c0.97-0.72,2.09-0.9,3.06-0.12c5.63,4.6,11.44,9.01,15.44,15.26c1.55,2.43,2.46,5.11,3.48,7.77c0.39,1.02,0.15,1.79-0.57,2.66
		c-3.35,4.06-6.66,8.17-9.89,12.34c-0.93,1.21-2.05,1.78-3.47,1.99c-1.97,0.3-3.91,0.22-5.84-0.31c-4.65-1.3-8.6-3.81-12.23-6.89
		c-0.15-0.27-0.03-0.72-0.51-0.76l0.01,0.03c-0.34-2-0.07-3.97,0.37-5.93c0.3-0.37,0.87-0.58,0.76-1.21
		c0.81,0.66,1.61,1.28,2.4,1.96c0.4,0.34,0.82,0.57,1.18,0.07c0.31-0.45-0.18-0.72-0.46-0.96c-2.24-1.93-4.45-3.88-6.74-5.74
		c-3.96-3.21-7.86-6.48-11.68-9.87c-0.79-0.7-1.66-1.31-2.49-1.96c0.07-0.21,0.25-0.45,0.21-0.63c-0.75-2.93-0.67-3.14,1.88-4.84
		c5.3,4.44,10.62,8.84,15.85,13.35c0.55,0.48,0.79,0.54,1.19,0.13c0.55-0.55-0.07-0.78-0.37-1.08c-0.91-0.94-2.15-1.52-2.87-2.67
		c0.24-0.3,0.82-0.07,0.87-0.78c0.09-1.63,1.21-2.61,2.51-3.41c1.73,1.43,3.47,2.87,5.2,4.3c0.51-0.55,0.67-1.02-0.1-1.6
		c-1.09-0.84-2.09-1.79-3.12-2.7c0.9,0.15,1.09-0.21,0.85-1.06C79.63,58.3,79.34,56.9,79.03,55.49z"/>
	<path class="st3" d="M69.45,30.07c2.05,8.48,4.11,16.97,6.15,25.45c0.22,0.93,0.43,1.87,0.66,2.84c-3.3-0.43-4.57,0.31-5.6,3.23
		c-0.94-0.73-2.32-1.14-1.85-2.87c0.13-0.49-0.63-0.61-0.85-0.3c-0.6,0.82-0.9,0.12-1.33-0.13c-1.3-0.78-2.08-2.36-3.78-2.52
		c-1-0.46-1.76-1.24-2.6-1.93c-2.06-1.67-4.24-1.61-5.83,0.15c-1.4,1.55-1.11,4.23,0.78,5.87c2.69,2.36,5.47,4.62,8.2,6.92
		c2.21,1.85,4.38,3.76,6.66,5.53c1.27,0.97,1.78,1.96,1.09,3.47c-0.25,0.57-0.37,1.21-0.55,1.81c-0.79-1.03-2.06-1.4-3.03-2.21
		c-3.24-2.7-6.3-5.69-10.31-7.33c1.19-0.07,2.4,0,3.57-0.4c0.39-0.13,0.84-0.21,0.67-0.76c-0.12-0.42-0.46-0.43-0.84-0.33
		c-1.93,0.52-3.82,0.48-5.77-0.01c-0.93-0.24-1.4,0.1-0.63,1.05c-1.28,0.31-2.51-0.21-3.76-0.33c-3.79-0.33-6.47-2.3-7.8-5.88
		c-1.18-3.14-1.11-6.15,1.09-8.96c1.06-1.34,1.9-2.84,2.14-4.65c0.19-1.45,0.27-2.84-0.01-4.27c-0.58-2.93,0.49-5.54,1.63-8.14
		C54.85,33.61,62.15,31.84,69.45,30.07z M68.98,55.46c-0.12-0.55-0.19-1.18-0.4-1.76c-0.15-0.42-0.07-1.24-0.81-1.06
		c-0.87,0.21-0.37,0.88-0.25,1.4c0.12,0.55,0.22,1.11,0.34,1.67c0.07,0.39,0.13,0.85,0.69,0.76C69.1,56.38,68.99,55.91,68.98,55.46z
		 M46.78,54.91c-0.13,0.91-0.22,1.43,0.45,1.49c0.57,0.04,0.54-0.45,0.61-0.84c0.15-0.73,0.28-1.46,0.51-2.17
		c0.13-0.42,0.03-0.66-0.33-0.82c-0.49-0.24-0.63,0.18-0.72,0.46C47.05,53.79,46.87,54.57,46.78,54.91z M67.05,50.69
		c0.03-0.48-2.14-2.76-2.54-2.7c-0.18,0.03-0.37,0.21-0.51,0.37c-0.18,0.21-0.04,0.42,0.12,0.6c0.63,0.66,1.25,1.31,1.9,1.97
		c0.22,0.24,0.49,0.28,0.75,0.09C66.9,50.91,66.98,50.76,67.05,50.69z M62.64,47.03c-0.04-0.1-0.06-0.22-0.12-0.31
		c-0.25-0.42-2.97-1.14-3.44-0.93c-0.31,0.15-0.4,0.4-0.3,0.7c0.07,0.24,3.35,1.12,3.54,0.96C62.46,47.35,62.54,47.18,62.64,47.03z
		 M47.38,58.26c-0.61,0.01-0.61,0.46-0.51,0.85c0.22,0.82,0.51,1.63,0.81,2.42c0.12,0.3,0.31,0.64,0.76,0.39
		c0.36-0.21,0.39-0.48,0.24-0.85c-0.28-0.75-0.52-1.51-0.76-2.27C47.83,58.5,47.72,58.27,47.38,58.26z M51.74,48.43
		c-0.12-0.37-0.36-0.69-0.75-0.45c-0.94,0.58-1.66,1.42-2.26,2.34c-0.25,0.39,0.06,0.64,0.43,0.72
		C49.44,51.1,51.76,48.71,51.74,48.43z M56.16,45.76c-0.87,0.06-1.67,0.33-2.46,0.67c-0.31,0.13-0.69,0.25-0.54,0.7
		c0.18,0.49,0.55,0.45,0.99,0.31c0.7-0.22,1.42-0.43,2.14-0.6c0.37-0.09,0.66-0.21,0.63-0.64C56.88,45.71,56.51,45.73,56.16,45.76z
		 M52.47,65.55c-0.84-0.73-1.7-1.55-2.66-2.23c-0.19-0.13-0.78,0.34-0.43,0.81c0.61,0.84,1.4,1.51,2.29,2.05
		C52.13,66.47,52.4,66.17,52.47,65.55z"/>
	<path class="st4" d="M57.24,68.07c4,1.64,7.06,4.62,10.31,7.33c0.97,0.81,2.24,1.18,3.03,2.21c-0.7,3.29,0.58,5.85,3.32,8.23
		c-9.23,2.17-18.15,4.26-27.08,6.35c-2.72-11.49-5.45-22.97-8.17-34.46c-1.39-5.83-2.78-11.65-4.17-17.47
		c-0.21-0.85-0.49-1.78,0.78-2.06c4.09-0.94,8.2-1.87,12.29-2.81c-1.14,2.6-2.23,5.21-1.63,8.14c0.28,1.43,0.21,2.82,0.01,4.27
		c-0.25,1.81-1.09,3.3-2.14,4.65c-2.2,2.81-2.27,5.83-1.09,8.96c1.34,3.58,4.02,5.56,7.8,5.88c1.25,0.1,2.48,0.63,3.76,0.33
		C55.24,67.76,56.24,67.91,57.24,68.07z"/>
	<path class="st0" d="M47.54,35.38c-4.09,0.94-8.2,1.87-12.29,2.81c-1.27,0.3-0.99,1.21-0.78,2.06c1.39,5.83,2.79,11.65,4.17,17.47
		c2.73,11.49,5.45,22.97,8.17,34.46c-3.12,0.97-3.12,0.97-3.9-2.24c-4.11-17.19-8.2-34.37-12.29-51.56
		c-0.58-2.43-0.57-2.42,1.94-3.02c11.07-2.64,22.13-5.27,33.2-7.92c3.2-0.76,3.2-0.76,3.67,2.63
		C62.15,31.84,54.85,33.61,47.54,35.38z"/>
	<path class="st5" d="M110.36,79.72c4,2.94,3.99,2.93,0.85,6.62c-2.69,3.17-5.36,6.33-7.99,9.56c-0.64,0.79-1.05,0.97-1.85,0.18
		c-1.19-1.17-2.52-2.2-3.84-3.23c-0.72-0.55-0.94-0.94-0.24-1.75c1.73-1.99,3.38-4.08,5.05-6.12c0.1-0.12,0.21-0.24,0.31-0.36
		l-0.01,0.01c0.1-0.13,0.21-0.27,0.31-0.4l-0.01,0.01c1.11,0.39,1.66-0.39,2.33-1.05c0.88-0.87,1.84-1.63,2.82-0.25
		c1.02-0.04-1.09-2.63,1.31-1.42c0.06-0.19,0.18-0.4,0.16-0.6C109.57,80.35,109.84,79.96,110.36,79.72z"/>
	<path class="st3" d="M59.99,55.23c-2.55,1.7-2.63,1.91-1.88,4.84c0.04,0.18-0.13,0.42-0.21,0.63c-0.52-0.43-1.08-0.85-1.58-1.3
		c-1.78-1.57-2.17-3.54-0.94-4.78C56.65,53.3,58.16,53.49,59.99,55.23z"/>
	<path class="st0" d="M110.36,79.72c-0.54,0.24-0.81,0.61-0.79,1.22c0,0.19-0.1,0.4-0.16,0.6c-2.4-1.21-0.3,1.36-1.31,1.42
		c-0.99-1.37-1.94-0.61-2.82,0.25c-0.67,0.66-1.22,1.43-2.33,1.05c1.52-1.94,3.06-3.88,4.56-5.82c0.45-0.58,0.79-0.72,1.31-0.06
		C109.26,78.88,109.86,79.27,110.36,79.72z"/>
	<path class="st3" d="M77.18,60.77c-1.28,0.81-2.4,1.78-2.51,3.41c-0.04,0.7-0.63,0.48-0.87,0.78l0.04-0.04
		c0.06-0.99-0.85-1.14-1.39-1.58c-1.09-1-0.72-2.08,0.03-2.99c0.78-0.94,1.85-1.34,3.08-0.82C76.19,59.78,76.73,60.21,77.18,60.77z"
		/>
	<path class="st4" d="M74.92,78.41c-0.45,1.96-0.72,3.93-0.37,5.93c-2.15-0.54-3.52-3.66-2.78-6.29
		C72.82,78.17,73.88,78.29,74.92,78.41z"/>
	<path class="st0" d="M62.84,55.78c1.7,0.16,2.48,1.75,3.78,2.52c0.43,0.25,0.72,0.96,1.33,0.13c0.24-0.31,0.99-0.19,0.85,0.3
		c-0.45,1.72,0.91,2.12,1.85,2.87c-0.06,0.27,0.37,1.27-0.42,0.6C67.74,60.08,65.05,58.21,62.84,55.78z"/>
	<path class="st3" d="M79.03,55.49c0.31,1.4,0.6,2.82,0.97,4.21c0.24,0.85,0.04,1.19-0.85,1.06C76.8,58.89,76.76,56.76,79.03,55.49z
		"/>
	<path class="st3" d="M74.92,78.41c-1.05-0.12-2.09-0.24-3.15-0.36c0.25-1.11,0.49-2.2,0.79-3.54c1.15,1,2.14,1.85,3.12,2.69
		C75.79,77.82,75.22,78.03,74.92,78.41z"/>
	<path class="st0" d="M72.44,63.32c0.55,0.45,1.45,0.6,1.39,1.58C73.02,64.68,72.38,64.31,72.44,63.32z"/>
	<path class="st4" d="M74.53,84.31c0.48,0.04,0.37,0.49,0.51,0.76C74.67,84.95,74.19,84.9,74.53,84.31z"/>
	<path class="st0" d="M102.97,84.23c-0.1,0.13-0.21,0.27-0.31,0.4C102.75,84.5,102.87,84.37,102.97,84.23z"/>
	<path class="st0" d="M102.66,84.63c-0.1,0.12-0.21,0.24-0.31,0.36C102.45,84.87,102.55,84.75,102.66,84.63z"/>
	<path class="st5" d="M19.75,14.78c0,1.49-0.09,3,0.03,4.5c0.09,1.24-0.55,1.24-1.46,1.25c-0.9,0.01-1.36-0.12-1.31-1.19
		c0.07-2.3,0-4.62,0.04-6.92c0.01-0.87-0.09-1.49-1.16-1.31c-1.03,0.15-1.28-0.33-1.28-1.28c0-1.09,0.63-1,1.34-1.02
		c3.81-0.1,3.81-0.1,3.81,3.72C19.75,13.27,19.75,14.03,19.75,14.78z"/>
	<path class="st0" d="M68.13,95.67c0.03,1.75-1.42,3.23-3.15,3.23c-1.69,0.01-3.12-1.36-3.18-3.02c-0.06-1.78,1.33-3.27,3.06-3.33
		C66.59,92.52,68.1,93.95,68.13,95.67z"/>
	<path class="st1" d="M57.24,68.07c-1-0.16-1.99-0.31-2.99-0.48c-0.76-0.94-0.3-1.28,0.63-1.05c1.94,0.49,3.84,0.55,5.77,0.01
		c0.36-0.1,0.72-0.09,0.84,0.33c0.16,0.57-0.28,0.64-0.67,0.76C59.64,68.07,58.43,68,57.24,68.07z"/>
	<path class="st1" d="M68.98,55.46c0.01,0.45,0.12,0.91-0.43,1c-0.57,0.09-0.61-0.37-0.69-0.76c-0.12-0.55-0.22-1.12-0.34-1.67
		c-0.12-0.51-0.61-1.19,0.25-1.4c0.73-0.18,0.66,0.64,0.81,1.06C68.78,54.29,68.86,54.91,68.98,55.46z"/>
	<path class="st1" d="M46.78,54.91c0.09-0.34,0.28-1.12,0.52-1.87c0.09-0.28,0.24-0.7,0.72-0.46c0.36,0.18,0.46,0.4,0.33,0.82
		c-0.22,0.7-0.37,1.43-0.51,2.17c-0.07,0.39-0.04,0.88-0.61,0.84C46.56,56.35,46.65,55.82,46.78,54.91z"/>
	<path class="st1" d="M67.05,50.69c-0.06,0.07-0.15,0.22-0.27,0.31c-0.27,0.19-0.52,0.15-0.75-0.09c-0.63-0.66-1.25-1.31-1.9-1.97
		c-0.16-0.18-0.3-0.37-0.12-0.6c0.13-0.16,0.31-0.34,0.51-0.37C64.91,47.92,67.08,50.21,67.05,50.69z"/>
	<path class="st1" d="M62.64,47.04c-0.09,0.15-0.16,0.31-0.3,0.42c-0.19,0.16-3.47-0.72-3.54-0.96c-0.1-0.31-0.01-0.55,0.3-0.7
		c0.46-0.22,3.18,0.51,3.44,0.93C62.57,46.82,62.6,46.92,62.64,47.04z"/>
	<path class="st1" d="M47.36,58.26c0.34,0.01,0.46,0.24,0.55,0.54c0.22,0.76,0.46,1.52,0.76,2.27c0.15,0.39,0.13,0.66-0.24,0.85
		c-0.45,0.25-0.64-0.09-0.76-0.39c-0.3-0.79-0.58-1.6-0.81-2.42C46.75,58.72,46.77,58.27,47.36,58.26z"/>
	<path class="st1" d="M51.74,48.43c0.01,0.28-2.3,2.67-2.57,2.61c-0.37-0.09-0.69-0.33-0.43-0.72c0.6-0.93,1.31-1.75,2.26-2.34
		C51.38,47.74,51.62,48.06,51.74,48.43z"/>
	<path class="st1" d="M56.16,45.76c0.36-0.03,0.72-0.04,0.75,0.45c0.03,0.43-0.25,0.55-0.63,0.64c-0.72,0.16-1.43,0.37-2.14,0.6
		c-0.43,0.13-0.81,0.18-0.99-0.31c-0.15-0.45,0.22-0.57,0.54-0.7C54.49,46.09,55.3,45.83,56.16,45.76z"/>
	<path class="st1" d="M52.47,65.55c-0.07,0.63-0.34,0.91-0.81,0.63c-0.88-0.54-1.67-1.21-2.29-2.05c-0.34-0.46,0.25-0.94,0.43-0.81
		C50.77,64.01,51.64,64.83,52.47,65.55z"/>
</g>
</svg>
