<?xml version="1.0" encoding="utf-8"?>
<!-- Generator: Adobe Illustrator 28.0.0, SVG Export Plug-In . SVG Version: 6.00 Build 0)  -->
<svg version="1.1" id="Слой_1" xmlns="http://www.w3.org/2000/svg" xmlns:xlink="http://www.w3.org/1999/xlink" x="0px" y="0px"
	 viewBox="0 0 120 120" style="enable-background:new 0 0 120 120;" xml:space="preserve">
<style type="text/css">
	.st0{fill:#FAF2CF;}
	.st1{fill:#F8AC1D;}
	.st2{fill:#FAB216;}
	.st3{fill:#FECC10;}
	.st4{fill:#FBF3D5;}
	.st5{fill:#FBF4D7;}
	.st6{fill:#FAF3D4;}
	.st7{fill:#FBF3D8;}
	.st8{fill:#FBF3D6;}
	.st9{fill:#FECE18;}
	.st10{fill:#FCF1D1;}
	.st11{fill:#FCF2D2;}
	.st12{fill:#FAF6DD;}
	.st13{fill:#FAF3D6;}
	.st14{fill:#FCF2D0;}
	.st15{fill:#FCF8E0;}
	.st16{fill:#FAF9E4;}
	.st17{fill:#FAF7DF;}
	.st18{fill:#FAF9E2;}
	.st19{fill:#FCFAE7;}
	.st20{fill:#FAF4D7;}
	.st21{fill:#FFFBF6;}
	.st22{fill:#FBF6DB;}
	.st23{fill:#FAFBF1;}
	.st24{fill:#FBF3D2;}
	.st25{fill:#FBEEC1;}
	.st26{fill:#FCECC3;}
	.st27{fill:#FBF6DD;}
	.st28{fill:#FAEEC8;}
	.st29{fill:#FAF4D6;}
	.st30{fill:#FAB84F;}
	.st31{fill:#FCEDC1;}
	.st32{fill:#FBFAE9;}
	.st33{fill:#FAF0CC;}
	.st34{fill:#FBD88A;}
	.st35{fill:#FAEFCA;}
	.st36{fill:#FBF6D9;}
	.st37{fill:#FAFCF7;}
	.st38{fill:#FCF0CE;}
	.st39{fill:#FBE6B0;}
	.st40{fill:#F9AF33;}
	.st41{fill:#FBEEC4;}
	.st42{fill:#FBC05A;}
	.st43{fill:#F9AE34;}
	.st44{fill:#FBC460;}
	.st45{fill:#FCF1CA;}
	.st46{fill:#FAF2CE;}
	.st47{fill:#FAE2A8;}
	.st48{fill:#F3941B;}
	.st49{fill:#FCF9E3;}
	.st50{fill:#FCF2D1;}
	.st51{fill:#F3921B;}
	.st52{fill:#FAFBEF;}
	.st53{fill:#FBDF9F;}
	.st54{fill:#FFFEFD;}
	.st55{fill:#FCF2CF;}
	.st56{fill:#FBE9B8;}
	.st57{fill:#FBE6B5;}
	.st58{fill:#F9B133;}
	.st59{fill:#FBE4AD;}
	.st60{fill:#FCEBC1;}
	.st61{fill:#FABB4D;}
	.st62{fill:#F18613;}
	.st63{fill:#F9AF34;}
	.st64{fill:#F18713;}
	.st65{fill:#FAB94A;}
	.st66{fill:#F7A627;}
	.st67{fill:#FBBB4D;}
	.st68{fill:#F6A32F;}
	.st69{fill:#FAB748;}
	.st70{fill:#F49519;}
	.st71{fill:#F6A127;}
	.st72{fill:#F49819;}
	.st73{fill:#F18714;}
	.st74{fill:#F7A62E;}
	.st75{fill:#F4961C;}
	.st76{fill:#FAB53E;}
	.st77{fill:#FAB540;}
	.st78{fill:#F4951C;}
	.st79{fill:#F49719;}
	.st80{fill:#F18413;}
	.st81{fill:#F49619;}
	.st82{fill:#F5991D;}
	.st83{fill:#F49915;}
	.st84{fill:#F59B18;}
	.st85{fill:#F3941D;}
	.st86{fill:#F8AC2C;}
	.st87{fill:#F49616;}
	.st88{fill:#F8AE39;}
	.st89{fill:#F18914;}
	.st90{fill:#F39218;}
	.st91{fill:#FCEBBF;}
	.st92{fill:#F49518;}
	.st93{fill:#F28B13;}
	.st94{fill:#F49717;}
	.st95{fill:#FCEDC5;}
	.st96{fill:#FCFBEE;}
	.st97{fill:#FAB743;}
	.st98{fill:#F8A92C;}
	.st99{fill:#F4981A;}
	.st100{fill:#FBC96C;}
	.st101{fill:#F49714;}
	.st102{fill:#F49917;}
	.st103{fill:#F4981C;}
	.st104{fill:#F6A324;}
	.st105{fill:#FBC05C;}
	.st106{fill:#FAB642;}
	.st107{fill:#F39418;}
	.st108{fill:#F4981D;}
	.st109{fill:#F28B15;}
	.st110{fill:#F18916;}
	.st111{fill:#F49418;}
	.st112{fill:#F49618;}
	.st113{fill:#F9AF36;}
	.st114{fill:#F49815;}
	.st115{fill:#F7A526;}
	.st116{fill:#FBF2CE;}
	.st117{fill:#F18812;}
	.st118{fill:#FBBC46;}
	.st119{fill:#FCE8B8;}
	.st120{fill:#FBC056;}
	.st121{fill:#FBBC53;}
	.st122{fill:#F9B140;}
	.st123{fill:#FAB946;}
	.st124{fill:#F7A82D;}
	.st125{fill:#F7A832;}
	.st126{fill:#F49716;}
	.st127{fill:#FBBB4F;}
	.st128{fill:#F8AD35;}
	.st129{fill:#FAF6DC;}
	.st130{fill:#F3921D;}
	.st131{fill:#F4971B;}
	.st132{fill:#F7A630;}
	.st133{fill:#F4951B;}
	.st134{fill:#F3941A;}
	.st135{fill:#F7A824;}
	.st136{fill:#F4991A;}
	.st137{fill:#FCEFCA;}
	.st138{fill:#FAB945;}
	.st139{fill:#FAB742;}
	.st140{fill:#F8AD38;}
	.st141{fill:#FCE8B9;}
	.st142{fill:#FCEEC7;}
	.st143{fill:#FBE7B3;}
	.st144{fill:#F18513;}
	.st145{fill:#F18515;}
</style>
<g>
	<path class="st0" d="M95.72,27.13c3.44,2.11,6.96,4.05,10.1,6.6c3.69,2.99,7.11,6.24,9.83,10.13c2.18,3.14,2.26,6.96,2.84,10.56
		c0.67,4.2,0.76,8.44-0.13,12.68c-0.76,3.6-2.82,6.39-5.02,9.13c-2.67,3.35-6.17,5.69-10.05,7.39c-3.17,1.39-4.94,3.82-6.18,6.84
		c-0.94,2.29-1.61,4.65-2.17,7.08c-1.31,5.66-4.68,10.07-9.08,13.74c-3.38,2.82-7.16,4.93-11.47,5.72
		c-8.8,1.61-16.91,0.34-23.72-6.1c-3.05-2.88-6.35-5.48-9.56-8.19c-0.75-0.63-1.57-1.2-2.63-1.09c0.12-0.79,0.82-0.7,1.33-0.85
		c9.2-2.52,14.31-8.8,16.45-17.84c0.09-0.39,0.16-0.79,0.25-1.18c0.22-1.11,0.87-1.58,2-1.28c1.15,0.3,2.29,0.31,3.42-0.06
		c0.85-0.28,1.4,0.07,1.88,0.79c1.51,2.32,1.51,2.94-0.06,5.3c-0.84,1.25-1.81,2.39-2.55,3.7c-0.31,0.57-0.6,1.18-0.01,1.73
		c0.51,0.48,1.09,0.27,1.6-0.03c3.05-1.76,5.99-3.7,8.99-5.54c1.22-0.75,1.05-1.99,0.93-3.12c-0.19-1.96-0.39-3.91-0.75-5.84
		c-0.31-1.69,0.24-2.69,1.6-3.63c5.62-3.87,10.47-8.53,14.25-14.24c4.48-6.78,6.96-14.25,7.54-22.39c0.19-2.66,0.25-5.29-0.01-7.93
		C95.22,28.55,95.12,27.75,95.72,27.13z"/>
	<path class="st0" d="M28.85,96.8c-2.97-0.76-6.04-0.81-9.05-0.97C10.98,95.32,4.44,91,1.77,82.31c-1.64-5.3-0.52-10.32,2.33-15.03
		c2.21-3.65,4.54-7.22,5.68-11.41c1.27-4.69,0.55-9.2-0.75-13.76c-1.06-3.73-0.28-6.05,2.88-8.2c3.93-2.67,8.05-4.91,13.09-4.74
		c3.3,0.12,5.62-1.64,7.71-4.14c2.49-2.94,4.09-6.39,6.12-9.59C43.51,8.11,50.27,3.66,58.8,2.66c7.08-0.84,13.8,0.81,19.06,6.14
		c1.28,1.3,2.24,2.91,3.27,4.44c0.46,0.69,0.97,1.11,1.81,1.09c-0.28,0.99-1.2,0.75-1.85,0.9c-7.32,1.58-14.18,4.23-20.21,8.72
		c-9.13,6.81-15.04,15.88-18.03,26.8c-0.73,2.69-1.9,4.24-4.74,4.54c-1.54,0.16-3.05,0.7-4.57,0.97c-1.4,0.25-2.09,1.03-2.38,2.38
		c-0.64,3.05-1.31,6.1-1.96,9.16c-0.18,0.82-0.57,1.84,0.55,2.26c1.05,0.39,1.52-0.57,2.02-1.25c0.94-1.31,1.85-2.66,2.76-3.99
		c1.17-1.72,2.78-1.02,4.26-0.94c1.37,0.07,1.46,1.24,1.64,2.29c0.15,0.87,0.48,1.67,0.94,2.41c0.69,1.09,0.39,1.76-0.69,2.38
		c-2.79,1.58-5.17,3.7-7.19,6.18c-4.14,5.08-5.59,10.91-4.54,17.36C29.09,95.25,29.46,96.05,28.85,96.8z"/>
	<path class="st1" d="M28.85,96.8c-0.27-2.85-0.84-5.65-0.51-8.57c0.78-6.99,4.48-12.09,9.87-16.21c0.04-0.03,0.09-0.06,0.15-0.1
		c1.02-0.66,2.44-1.11,2.93-2.03c0.46-0.88-0.99-1.9-1.17-3.03c-0.01-0.06-0.03-0.1-0.06-0.16c-0.37-0.72,0.16-1.91-0.6-2.24
		c-0.97-0.42-2.14-0.33-3.23-0.46c-0.67-0.09-0.88,0.46-1.17,0.87c-1.14,1.6-2.24,3.23-3.36,4.83c-0.52,0.75-1.12,1.4-2.14,0.99
		c-1.05-0.43-1.15-1.28-0.93-2.3c0.75-3.44,1.51-6.87,2.18-10.31c0.25-1.27,0.94-1.87,2.15-2.14c2.42-0.52,4.83-1.17,7.25-1.64
		c0.94-0.18,1.3-0.61,1.54-1.52c2.02-7.66,5.14-14.8,10.25-20.97c6.69-8.08,15.15-13.39,25.26-16.09c1.88-0.51,3.79-0.91,5.68-1.37
		c1.67-0.15,3.33-0.36,5-0.43c3.02-0.15,5.39,1.64,6.04,4.6c0.63,2.87,1.17,5.75,1.75,8.63c0.42,5.77,0.31,11.5-0.97,17.19
		c-2.24,9.89-7.26,18.11-14.71,24.9c-2.18,1.99-4.45,3.84-6.92,5.47c-0.79,0.52-0.99,1.08-0.84,2.02c0.39,2.51,0.63,5.03,0.96,7.54
		c0.15,1.15-0.21,1.97-1.25,2.58c-2.97,1.78-5.89,3.63-8.83,5.47c-0.82,0.51-1.67,0.94-2.49,0.07c-0.81-0.85-0.39-1.69,0.18-2.49
		c0.9-1.27,1.79-2.55,2.67-3.84c1.18-1.7,1.05-3.47-0.28-5.03c-0.43-0.52-0.82-0.27-1.22-0.13c-0.9,0.28-1.91,0.51-2.72,0.19
		c-1.94-0.75-2.2,0.21-2.57,1.81c-2.23,9.78-7.8,16.4-17.96,18.57c-0.1,0.01-0.19,0.12-0.28,0.19c-2,0.12-3.99,0.42-6.01,0.4
		c-1.3,0-2.02-0.42-2.36-1.7C29.78,99.13,29.27,97.98,28.85,96.8z"/>
	<path class="st1" d="M30.18,14.67c-0.01,6.74-5.51,12.15-12.29,12.1c-6.62-0.04-12.01-5.56-11.97-12.25
		C5.96,7.87,11.46,2.48,18.14,2.51C24.79,2.54,30.2,8,30.18,14.67z"/>
	<path class="st2" d="M81.94,76.33c-1.37-0.64-2.76-1.28-4.44-2.08c1.22-0.36,1.97-1,3.06-1.02c1.17-0.03,1.99-0.61,2.23-1.94
		c0.22-1.27,0.69-2.51,1.15-4.15c0.66,1.87,1.18,3.33,1.69,4.81c0.39,0.21,0.45,0.64,0.66,0.97c1.03,0.33,2.06,0.72,3.11,0.97
		c1.55,0.37,0.3,0.7,0.01,1.05c-0.24,0.34-0.52,0.54-0.96,0.4c-1.91,0.33-3.06,1.37-3.42,3.33c-0.16,0.94-0.58,1.85-0.94,2.94
		c-0.9-1.31-0.79-2.81-1.51-3.97C82.11,77.34,82.14,76.78,81.94,76.33z"/>
	<path class="st3" d="M91.22,85.7c-0.04-0.25-0.97-0.58-0.01-0.73c1.28-0.21,1.6-1.11,1.84-2.46c0.79,1.18,1.09,2.54,2.54,2.6
		c-0.09,0.19-0.18,0.39-0.27,0.58c-0.97,0.54-1.27,1.55-1.75,2.45c-0.87,0.07-0.49-0.84-0.91-1.14
		C92.31,86.42,91.58,86.28,91.22,85.7z"/>
	<path class="st4" d="M93.57,88.14c0.01-1.21,0.31-2.24,1.75-2.45C94.89,86.61,94.34,87.45,93.57,88.14z"/>
	<path class="st5" d="M81.94,76.33c0.61,0.24,0.6,0.81,0.66,1.33c-0.03,0.1-0.04,0.22-0.07,0.33C81.9,77.84,81.57,76.95,81.94,76.33
		z"/>
	<path class="st6" d="M86.29,72.93c-0.6-0.07-0.63-0.52-0.66-0.97c0.12-0.15-0.07-0.69,0.39-0.37
		C86.45,71.9,86.56,72.61,86.29,72.93z"/>
	<path class="st7" d="M91.22,85.7c0.51,0.4,1.55,0.21,1.43,1.3c-0.07,0.16,0.01,0.45-0.3,0.46C92.33,86.66,91.25,86.51,91.22,85.7z"
		/>
	<path class="st8" d="M88.46,75.35c0.33-0.13,0.64-0.27,0.97-0.4c0.18,0.06,0.58,0.1,0.43,0.27C89.47,75.59,88.98,75.93,88.46,75.35
		z"/>
	<path class="st2" d="M51.3,19.07c-0.28-0.06-0.22,1.06-0.69,0.24c-0.33-0.58-0.48-1.27-0.7-1.9c-0.21-0.31-0.52-0.6-0.31-1.03
		c-0.01-1.4-0.66-2.26-2.09-2.44c-1.06-0.13-1.75-0.96-2.76-1.3c0.52-0.91,1.54-0.57,2.09-1.12c0.27-0.37,0.66-0.34,1.05-0.33
		c0.9,0.06,1.36-0.39,1.58-1.24c0.37-1.45,0.81-2.88,1.34-4.75c0.52,1.61,1.03,2.82,1.3,4.09c0.28,1.39,1.03,2.06,2.39,2.27
		c0.73,0.12,1.43,0.42,2.17,0.6c0.6,0.13,0.4,0.4,0.18,0.7c-0.24,0.33-0.52,0.57-0.97,0.39c-1.3,0.58-3.02,0.6-3.45,2.42
		c0.13,0.69-0.16,1.27-0.43,1.85C51.69,18.03,51.83,18.69,51.3,19.07z"/>
	<path class="st9" d="M59.28,21.93c0.04-1.28-1.31-1.08-2-1.88c1.57-0.28,2.38-1.22,2.46-2.84c0.57,1.34,0.91,2.7,2.69,2.91
		c-1.6,0.45-2.11,1.69-2.52,3.12c-0.25-0.45-0.4-0.75-0.57-1.05c-0.12-0.04-0.16-0.09-0.13-0.16
		C59.24,21.96,59.25,21.93,59.28,21.93z"/>
	<path class="st10" d="M51.3,19.07c0.13-0.55,0.27-1.11,0.4-1.66c0.3-0.06,0.48-0.01,0.33,0.34c0.06,0.76-0.12,1.46-0.6,2.32
		C51.38,19.61,51.35,19.34,51.3,19.07z"/>
	<path class="st11" d="M52.04,17.76c-0.1-0.12-0.21-0.22-0.33-0.34c0.22-0.58,0.45-1.15,0.69-1.73
		C53.1,16.52,52.57,17.13,52.04,17.76z"/>
	<path class="st12" d="M47.88,11.19c-0.3,0.28-0.67,0.31-1.05,0.33c-0.16-0.06-0.57-0.07-0.34-0.28
		C46.88,10.89,47.4,10.54,47.88,11.19z"/>
	<path class="st13" d="M55.84,13.26c0.33-0.13,0.64-0.25,0.97-0.39c0.18,0.06,0.58,0.1,0.42,0.27
		C56.88,13.52,56.37,13.86,55.84,13.26z"/>
	<path class="st14" d="M59.28,21.93c0.06,0.09,0.09,0.18,0.06,0.27c-0.03,0.37-0.06,0.75-0.12,1.36
		C58.88,22.81,58.86,22.35,59.28,21.93z"/>
	<path class="st15" d="M49.6,16.37c0.24,0.3,0.34,0.64,0.31,1.03C49.18,17.25,49.06,16.91,49.6,16.37z"/>
	<path class="st0" d="M72.88,29.62c-1.2,1.57-1.17,1.87,0.45,2.99c5.83,4.08,11.64,8.16,17.49,12.19c0.97,0.67,1.2,1.24,0.84,2.41
		c-3.42,10.98-10.49,19.11-19.72,25.58c-2.84,1.99-5.86,3.7-8.95,5.27c-2.2,1.11-4.32,1.05-6.38-0.39
		c-3.97-2.78-7.98-5.53-11.94-8.34c-2.14-1.51-2.85-3.57-2.51-6.18c0.99-7.62,2.81-14.95,6.35-21.83
		c3.17-6.15,7.44-11.37,12.97-15.57c0.84-0.64,1.34-0.54,2.08,0.01c1.48,1.11,3.06,2.08,4.53,3.2c1.17,0.9,1.96,0.69,2.61-0.54
		C71.35,28.96,72.67,28.28,72.88,29.62z"/>
	<path class="st0" d="M31.88,98.25c-3.3-8.44-0.73-17.82,6.35-23.33c1.46-1.14,2.96-2.23,4.59-3.11c0.34-0.19,0.78-0.52,1.08-0.1
		c0.31,0.45-0.22,0.7-0.49,0.97c-2.33,2.44-4.35,5.08-5.41,8.35c-0.91,2.82-0.97,5.65-0.21,8.52c0.3,1.12,0.88,1.6,2.11,1.49
		c2.66-0.22,5.06-1.03,7.26-2.54c0.7-0.48,1.18-1.05,0.61-1.85c-0.51-0.7-1.17-0.51-1.82-0.06c-1.4,0.94-2.94,1.54-4.57,2
		c-1.31,0.37-1.67-0.21-1.78-1.28c-0.24-2.21-0.04-4.39,0.87-6.45c1.15-2.61,2.78-4.91,4.84-6.9c0.67-0.66,1.18-0.67,1.91-0.1
		c1.03,0.82,2.15,1.55,3.24,2.33c2.05,1.45,2.09,1.46,0.93,3.73c-0.6,1.18-1.36,2.27-2.08,3.39c-0.39,0.6-0.54,1.17,0.1,1.67
		c0.75,0.58,1.3,0.19,1.76-0.4c1.11-1.42,1.97-2.97,2.72-4.62c0.13-0.31,0.16-0.93,0.76-0.73c0.42,0.13,0.28,0.55,0.24,0.9
		c-1.37,10.46-8.01,18.61-19.18,19.39C34.36,99.3,33.23,98.46,31.88,98.25z"/>
	<path class="st16" d="M83.24,16.74c0.12,0,0.22,0,0.34,0.01c0.37,0.16,0.66,0.75,1.12-0.06c0.25-0.43,1.2,0.46,1.66-0.3
		c0.09-0.06,0.18-0.09,0.28-0.07c0.3-0.16,0.63-0.12,0.96-0.1c0.16,0.06,0.25,0.18,0.28,0.34c-0.01,0.34-0.27,0.88,0.49,0.6
		c0.22-0.04,0.43-0.03,0.64,0.06c0.19,0.49,0.54-0.04,0.78,0.12c0.31-0.06,0.55-0.73,0.94-0.15c0.96,1.43,1.37,3,1.15,4.74
		c-0.27,0.28-0.63,0.19-0.94,0.21c0.04,0.1,0.12,0.15,0.24,0.12c0.24,0.01,0.46-0.15,0.69,0.03c1,0.72-0.18,2.02,0.75,2.76
		c-0.72,0.72,0.3,1.14,0.31,1.72c-0.12,0.12-0.24,0.24-0.36,0.36c-0.64,0.42-1.08,0.09-1.45-0.4c-0.04-0.09,0-0.21-0.04-0.31
		c-0.09,0.06-0.1,0.13-0.06,0.25c0.07,0.49-0.19,0.76-0.57,0.97c-0.07,0.03-0.19,0.1-0.18,0.16c0.06,0.22-0.13-0.01,0.1-0.03
		c0.19-0.09,0.37-0.1,0.55-0.03c0.19,0.12,0.34,0.27,0.45,0.46c0.09,0.19,0.13,0.4,0.16,0.6c0.06,0.07-0.07,0.28,0.16,0.27
		c0.22-0.01-0.1,0.04,0.03-0.13c0.01-0.48-0.01-0.96,0.48-1.24c0.15-0.03,0.28,0,0.39,0.12c0.24,1.12,0.46,2.24,0.7,3.36
		c0.15,0.67,0.34,1.36-0.36,1.87c-0.13,0.07-0.3,0.13-0.45,0.16c-0.45-0.01-0.91-0.09-1.37-0.04c-0.24-0.04-0.42-0.18-0.55-0.37
		c-0.16-0.27-0.27-0.57-0.13-0.88c0.28-0.36,0.57-0.7,1.06-0.73c0.12,0.03,0.3,0,0.3-0.03c-0.07-0.19-0.25-0.18-0.43-0.19
		c-0.46,0.03-0.93,0.01-1.25-0.37c-0.1-0.13-0.04-0.37-0.25-0.43c-0.04-0.01-0.1,0.15-0.1,0.25c-0.01,0.21-0.06,0.4-0.15,0.6
		c-0.12,0.19-0.28,0.33-0.48,0.42c-0.4,0.07-0.84,0.09-1.21,0.31c-0.13,0.04-0.27,0.06-0.4,0.04c-0.13-0.04-0.24-0.12-0.34-0.21
		c-0.18-0.19-0.4-0.37-0.58-0.57c-0.1-0.19-0.13-0.4-0.1-0.61c0.03-0.15,0.09-0.28,0.16-0.42c0.22-0.33,0.46-0.63,0.91-0.46
		c0.1,0.03,0.22,0.04,0.33,0.06c0.01-0.25-0.21-0.21-0.34-0.28c-0.39-0.06-0.69,0.24-1.05,0.3c-0.28,0.07-0.57,0.13-0.85,0.22
		c-0.21,0.06-0.43,0.1-0.66,0.12c-0.36,0.03-0.72,0.09-1.08,0.15c-0.49,0.03-0.97-0.16-1.46,0c-0.13,0.04-0.27,0.07-0.4,0.1
		c-0.27,0.06-0.55,0.07-0.82,0.1c-0.13,0.01-0.27,0.04-0.4,0.06c-0.42,0.07-0.7,0.46-1.15,0.45c-0.31-0.04-0.55-0.21-0.75-0.46
		c-0.1-0.22-0.12-0.45-0.04-0.67c0.06-0.13,0.15-0.25,0.25-0.36c0.28-0.24,0.52-0.54,0.94-0.52c0.33,0.07,0.54-0.04,0.66-0.36
		c0.12-0.33,0.27-0.66,0.13-1.02c-0.1-0.36-0.24-0.7-0.3-1.06c-0.04-0.42,0.1-0.75,0.43-0.99c0.48-0.18,1-0.15,1.48-0.34
		c0.96-0.45-0.13-0.63-0.13-0.94c-0.24-0.43-0.33-1.08-1.08-0.88c-0.24,0.04-0.46,0.04-0.69-0.03c-0.15-0.07-0.22-0.21-0.24-0.37
		c0.06-0.34,0.28-0.55,0.6-0.69c0.13-0.12,0.34-0.16,0.42-0.36c-0.18-0.04-0.24,0.12-0.37,0.18c-0.48,0.3-0.69-0.03-0.91-0.36
		c-0.07-0.13-0.1-0.3-0.1-0.45c0.07-0.42,0.37-0.66,0.7-0.88c0.25-0.16,0.52-0.31,0.61-0.63c-0.03-0.31-0.22-0.57-0.3-0.85
		c0-0.07-0.01-0.15-0.01-0.22c0.01-0.07,0.01-0.15,0.03-0.22c0.1-0.42,0.13-0.88,0.51-1.2c0.12,0,0.22-0.01,0.34-0.01
		C82.47,17.61,82.87,17.22,83.24,16.74z"/>
	<path class="st17" d="M82.26,29.95c0.52-0.79,1.09-0.28,1.66-0.06c0.4,0.07,0.78,0.04,1.03-0.33c0.24,0,0.49-0.01,0.73-0.01
		c0.43,0.07,0.78,0.28,1,0.66c0.01,0.24,0.03,0.46,0.03,0.7c-0.03,0.22-0.18,0.46,0.06,0.66c0.21,0.07,0.42,0.06,0.61,0.06
		c0.15-0.01,0.28-0.01,0.43-0.03c0.4-0.15,0.82-0.13,1.24-0.1c0.36,0.06,0.7-0.15,1.08-0.03c0.21,0.1,0.36,0.27,0.39,0.51
		c0.09,0.27,0.19,0.55,0.28,0.82c-0.13,0.24-0.48,0.55,0.18,0.57c0.45-0.06,0.81-0.4,1.27-0.36c0.12,0,0.22,0,0.34,0
		c1.18,0.16,0.88,0.93,0.69,1.66c-0.21,0.52,0.28,1.15-0.25,1.61c-0.21,0.42,0.22,0.57,0.34,0.85c-0.13,0.25-0.25,0.51-0.39,0.76
		c-0.1,0.25-0.15,0.51,0.07,0.73c-0.33,0.9-0.39,1.79-0.13,2.7c-0.66,0.34-1.3,0.73-2.08,0.72c-0.22-0.24-0.45-0.48-0.67-0.72
		c-0.18-0.18-0.31-0.4-0.36-0.66c-0.04-0.33-0.03-0.64,0.1-0.96c0.1-0.3-0.03-0.57-0.15-0.82c-0.06-0.01-0.07-0.27-0.16-0.01
		c0.16,0.19,0.31,0.39,0.33,0.64c-0.04,0.13-0.12,0.25-0.19,0.37c-0.19,0.28-0.3,0.63-0.63,0.82c-2.08-1.18-3.99-2.64-5.86-4.09
		c-1.63-1.27-3.59-2.12-4.97-3.75c-0.57-0.66-2.21-0.21-2.02-1.81c-0.48-0.57-1.22-0.1-1.75-0.48c-0.39-0.12-0.39-0.4-0.31-0.73
		c0.1-0.09,0.21-0.18,0.33-0.25c0.12-0.06,0.25-0.12,0.39-0.16c0.19-0.09,0.4-0.16,0.6-0.24c0.51-0.18,1.02-0.36,1.55-0.4
		c0.33-0.03,0.66-0.01,0.99,0.06c0.42,0.12,0.82,0.28,1.02,0.72c0,0.21,0,0.42,0,0.63c-0.12,0.39,0.03,0.63,0.4,0.75
		c0.12,0.06,0.24,0.13,0.33,0.21c0.3,0.25,0.4,0.03,0.51-0.19c0.07-0.12,0.16-0.22,0.27-0.31c0.21-0.19,0.36-0.42,0.43-0.69
		c0.42,0,0.82-0.01,1.24-0.01c0.16,0.16-0.06-0.04,0.1,0.1C82.33,30.02,82.3,29.98,82.26,29.95z"/>
	<path class="st18" d="M78.09,29.19c-0.36,0-0.72,0.01-1.09,0.01c-0.31-0.22-0.61-0.45-0.54-0.88c0.06-0.21,0.18-0.48-0.25-0.31
		c-0.21,0.04-0.42,0.01-0.61-0.07c-0.12-0.1-0.19-0.21-0.27-0.34c-0.15-0.34-0.22-0.72-0.3-1.08c-0.12-0.55-0.46-0.45-0.82-0.28
		c-0.54,0.07-1.12-0.07-1.6,0.3c-0.15,0.06-0.3,0.09-0.45,0.09c-0.48-0.07-0.93-0.01-1.33,0.25c-0.15,0.04-0.28,0.01-0.4-0.09
		c-0.75-0.78-2.14,0.13-2.73-1.03c-0.03-0.6-0.57-0.09-0.75-0.34c-2.09-1.63-1.9-2.51,1.06-3.57c0.79-0.28,1.66-0.21,2.15-1.09
		c0.07-0.15,0.64-0.01,0.97-0.01c0.15-0.03,0.3-0.03,0.46-0.01c0.49,0.13,1,0.3,1.52,0.19c0.19-0.03,0.4-0.04,0.6-0.06
		c0.16-0.01,0.34-0.04,0.48-0.15c-0.16-0.49-0.52-0.09-0.76-0.15c-0.6,0.04-1.2,0.13-1.66-0.37c1.54-1.08,3.35-1.45,5.12-1.37
		c1.02,0.04,0.61-1.28,1.48-1.02c0.39,0.22,0.57,0.55,0.54,1c0.04,0.16-0.03,0.36,0.13,0.48c-0.04-0.19-0.1-0.37-0.01-0.58
		c0.25-0.4,0.64-0.54,1.09-0.58c0.37-0.03,0.72,0.03,0.99,0.31c0.01,0.13,0.03,0.27,0.04,0.4c0.19,0.4-0.22,0.72-0.16,1.09
		c0.01,0.13,0.04,0.27,0.06,0.4c-0.4,0.24-0.76,0.52-0.97,0.97c-0.16,0.16,0.04-0.06-0.12,0.1c0.03-0.04,0.07-0.07,0.1-0.12
		c0.24,0.21,0.48,0.43,0.72,0.64c0.09,0.07,0.13,0.15,0.1,0.22c-0.03,0.07-0.06,0.12-0.09,0.12c-0.13,0.25-0.25,0.51-0.39,0.75
		l-0.03,0.03L80.4,23c0.24-0.01,0.48-0.03,0.72-0.04c0.06,0.03,0.12,0.07,0.19,0.1c0.1,0.09,0.21,0.19,0.31,0.31
		c0.28,0.24,0.67,0.34,0.91,0.64c0.34,0.28,1.11,0.18,1.09,0.63c-0.01,0.54-0.61,0.78-1.2,0.72c-0.4-0.42-0.84-0.19-1.25-0.03
		c-0.12,0.36-0.25,0.7-0.37,1.06c-0.4,0.54,0.01,0.81,0.37,1.11c0.36,0.36-0.13,0.7-0.03,1.06c-0.27,0.3-0.63,0.34-1,0.33
		c-0.25,0.22-0.52,0.45-0.78,0.67C79.03,29.08,78.64,28.83,78.09,29.19z"/>
	<path class="st19" d="M76.65,28.22c0.12,0.33,0.24,0.66,0.36,0.99c-0.57,0.12-1.12,0.22-1.69,0.34c-0.13,0-0.28-0.01-0.42-0.01
		c-0.12,0-0.24,0.01-0.36,0.03c-0.1,0.03-0.22,0.04-0.34,0.09c-0.45,0-0.88-0.01-1.33-0.01c-0.43-0.91-1.99,0.18-2.17-1.2
		c-0.34-0.51-0.99-0.97-0.28-1.64c0.13-0.01,0.27-0.01,0.4-0.03c0.43-0.19,0.91-0.24,1.36-0.33c0.1,0,0.22,0,0.33-0.01
		c0.54-0.24,1.11-0.09,1.66-0.16c0.36,0.06,0.75,0.03,1.09,0.24c0.12,0.33,0.22,0.64,0.34,0.97c-0.24,0.25-0.54,0.31-0.87,0.24
		c-0.34-0.1-0.69-0.18-1.02-0.04c0.18,0.27,0.33-0.04,0.49,0c0.15,0,0.28,0.01,0.42,0.07c0.33,0.24,0.67,0.21,1.03,0.07
		c0.19,0,0.39,0,0.58,0C76.49,27.86,76.62,27.98,76.65,28.22z"/>
	<path class="st20" d="M37.46,58.33c-0.07-0.63,0.09-1.11,0.78-1.33c0.82-0.25,0.91,0.36,1.15,0.87c0.03,0.07,0.31,0.03,0.49,0.04
		c0.12,0.12,0.15,0.25,0.1,0.42c-0.94,0.48,0.01,1.21-0.24,1.78c-0.07,0.16-0.22,0.37-0.34,0.31c-0.54-0.21-0.93-0.22-0.97,0.49
		c-0.63,0.25-1.15,0.18-1.55-0.42c-0.16-0.45-0.48-0.78-0.87-1.06c-0.1-0.13-0.18-0.27-0.22-0.42c-0.06-0.24-0.07-0.49-0.04-0.73
		c0.04-0.25,0.16-0.46,0.34-0.64c0.52,0.09,0.76,0.78,1.39,0.67c0.07,0.07,0.1,0.12,0.1,0.12C37.6,58.47,37.56,58.44,37.46,58.33z"
		/>
	<path class="st0" d="M36.05,58.96c0.01,0.15,0.03,0.3,0.04,0.45c0.25,0.36,0.67,0.46,1.03,0.66c0.1,0.93,0.85,0.63,1.39,0.69
		c0.3,0.34,0.28,0.7,0,1.05c-0.36-0.06-0.61-0.57-1.09-0.22c-0.22,0.15-0.7,0.31-0.78,0.22c-1.02-1.14-1.97-0.09-2.96,0.01
		c-0.13,0.12-0.28,0.12-0.43,0.04c-0.18-0.21-0.13-0.45-0.09-0.69c0.16-0.36,0.1-0.78,0.34-1.11c0.25-0.28,0.63-0.37,0.96-0.57
		c0.18-0.12,0.37-0.22,0.55-0.34C35.33,59.01,35.66,58.81,36.05,58.96z"/>
	<path class="st21" d="M31.88,98.25c1.64-0.69,2.58,0.75,3.82,1.28c-0.67,0.04-1.36,0.01-2,0.16C32.42,100,31.94,99.41,31.88,98.25z
		"/>
	<path class="st22" d="M66.53,85.95c0.03-0.93,1.09-0.66,1.43-1.22c-0.13-0.19-0.18-0.39-0.15-0.63c0.07-0.13,0.18-0.21,0.31-0.24
		c0.28,0.21,0.58,0,0.88,0.04c0.24,0.16,0.37,0.4,0.46,0.67c0.03,0.15-0.01,0.27-0.12,0.37c-0.36,0.21-0.15,1.05-0.91,0.82
		c-0.37,0.06-0.51,0.42-0.78,0.6C67.17,86.69,66.63,86.87,66.53,85.95z"/>
	<path class="st14" d="M67.99,84c0,0.24-0.01,0.49-0.01,0.73c-1.05-0.94-1.96-1.96-1.75-3.53c0.18-0.19,0.4-0.25,0.66-0.24
		c0.25,0.06,0.43,0.19,0.54,0.43c0,0.49,0.19,0.9,0.54,1.22C68.26,83.07,68.39,83.53,67.99,84z"/>
	<path class="st23" d="M65.9,80.52c-0.67,0-0.82-0.21-0.39-0.79c0.64-0.85,1.64-1.12,2.46-1.67c0.13,0.12,0.22,0.25,0.28,0.42
		c0.09,0.34,0.04,0.67-0.1,0.99c-0.3,0.39-0.75,0.57-1.12,0.87C66.68,80.52,66.3,80.59,65.9,80.52z"/>
	<path class="st23" d="M67.98,79.32c0-0.3,0-0.6,0.01-0.88c0.27-0.19,0.51-0.03,0.76,0.03c0.27,0.07,0.51,0.01,0.75-0.1
		c0.06-0.03,0.13-0.04,0.19-0.06c0.15-0.01,0.27,0.03,0.36,0.15c-0.09,0.69-0.19,1.37-0.28,2.06c-0.04,0.16-0.13,0.28-0.25,0.4
		C69.36,81,69.2,81.01,69.04,81c-0.24-0.07-0.45-0.19-0.64-0.37C68.11,80.23,67.62,79.92,67.98,79.32z"/>
	<path class="st24" d="M38.5,61.8c0-0.34,0-0.7,0-1.05c-0.34-1.27,0.76-0.4,1.06-0.72c0.37-0.16,0.48,0.12,0.63,0.36
		C39.43,60.63,40.17,62.67,38.5,61.8z"/>
	<path class="st25" d="M86.36,16.4c-0.34,0.91-0.34,0.67-1.2,0.64c-0.57-0.03-1.18,0.82-1.58-0.28C84.48,16.4,85.42,16.3,86.36,16.4
		z"/>
	<path class="st26" d="M69.35,84.94c-0.01-0.07-0.01-0.16-0.01-0.24c0.07-0.64,0.48-1.22,0.25-1.9c0.48-0.66,0.84-0.31,1.17,0.15
		C70.69,83.89,71.44,85.42,69.35,84.94z"/>
	<path class="st27" d="M35.1,59.26c-0.13,0.15-0.27,0.31-0.4,0.46c-0.31-0.01-0.63-0.06-0.88-0.28c-0.22-0.24-0.4-0.49-0.22-0.84
		c0.24-0.78,0.87-0.63,1.43-0.63c0.12,0.1,0.21,0.24,0.27,0.39C35.36,58.69,35.35,58.99,35.1,59.26z"/>
	<path class="st28" d="M83.24,16.74c-0.09,0.51,0.24,1.22-0.63,1.33c-0.76,0.09-0.78-0.46-0.76-1
		C82.26,16.68,82.75,16.71,83.24,16.74z"/>
	<path class="st29" d="M92.94,34.73c0.57-0.7,0.28-1.24-0.34-1.72c0.64-0.45,0.76-1.12,0.73-1.85c0.63,1.27,0.24,2.6,0.25,3.91
		C93.24,35.24,93.06,35.04,92.94,34.73z"/>
	<path class="st30" d="M80.12,18.4c-0.34,0.13-0.69,0.27-1.03,0.4c-0.13,0.16-0.24,0.15-0.34-0.03c-0.12-0.33-0.24-0.66-0.36-0.99
		c0.46-0.54,0.96-0.51,1.48-0.09C80.08,17.88,80.27,18.07,80.12,18.4z"/>
	<path class="st31" d="M33.6,58.59c0.13,0.25,0.27,0.51,0.4,0.78c0,0.24-0.1,0.42-0.28,0.55c-0.09,0.42,0,0.91-0.43,1.21
		c-0.12,0.15-0.22,0.15-0.31-0.01C32.81,60.17,32.44,59.18,33.6,58.59z"/>
	<path class="st32" d="M40.19,60.39c-0.21-0.12-0.42-0.24-0.63-0.36c0.19-0.55-1.93-1.55,0.33-1.7c0.15,0.13,0.16,0.28,0.06,0.45
		C40.26,59.29,40.41,59.81,40.19,60.39z"/>
	<path class="st33" d="M90.08,27.51c0.49-0.19,0.79-0.54,0.79-1.09c0.12-0.07,0.22-0.09,0.34-0.01c0.34,0.46,0.82,0.64,1.37,0.7
		c0.01,0.22,0.04,0.46,0.06,0.69c-0.13,0-0.25,0-0.39,0.01c-0.1,0.1-0.22,0.15-0.36,0.15c-0.33-0.09-0.64-0.24-0.99-0.15
		c-0.25,0.1-0.51,0.22-0.78,0.33C89.95,27.95,89.94,27.74,90.08,27.51z"/>
	<path class="st34" d="M70.75,82.95c-0.34-0.13-0.69-0.49-1.06-0.03c-0.79-0.49-0.78-0.64,0.18-1.54c0.16-0.18,0.34-0.33,0.54-0.48
		C71.1,81.49,70.63,82.26,70.75,82.95z"/>
	<path class="st33" d="M90.85,42.05c0.51-0.76,1.28-0.76,2.08-0.72C92.44,42.17,91.85,42.68,90.85,42.05z"/>
	<path class="st35" d="M92.94,34.73c0.22,0.12,0.43,0.24,0.66,0.36c0,0.43,0,0.88,0.01,1.31c-0.48,0.25-0.81,0.1-1.02-0.39
		c-0.01-0.21,0.82-0.21,0.16-0.58C91.89,34.94,92.53,34.86,92.94,34.73z"/>
	<path class="st36" d="M39.95,58.8c-0.01-0.15-0.03-0.3-0.06-0.45c0-0.13-0.01-0.27-0.01-0.42c0.24-0.39-0.34-0.87,0.09-1.21
		c0.09-0.07,0.37-0.03,0.46,0.07c0.43,0.43,0.3,0.94,0.07,1.4C40.4,58.41,40.13,58.59,39.95,58.8z"/>
	<path class="st14" d="M66.53,85.95c0.76,1.15,1.24-0.51,1.91-0.19c-0.27,1.15-1.81,0.72-2.17,1.75c-0.33-0.16-0.36-0.46-0.4-0.78
		C66.09,86.48,66.3,86.22,66.53,85.95z"/>
	<path class="st37" d="M32.96,61.1c0.1,0.01,0.21,0.01,0.33,0.01c0,0.22,0,0.45,0,0.66c0.16,0.45,0.52,0.96-0.34,1.08
		C31.48,62.25,32.79,61.68,32.96,61.1z"/>
	<path class="st38" d="M71.77,20.18c0.7-0.01,1.39-0.01,2.09-0.03c0.06,0.06,0.12,0.12,0.18,0.16c0.15,0.33,0.1,0.64-0.15,0.9
		c-0.24,0-0.46,0-0.7,0c-0.43-0.39-1.06-0.25-1.54-0.52c-0.06-0.04-0.12-0.1-0.18-0.16C71.58,20.42,71.67,20.3,71.77,20.18z"/>
	<path class="st39" d="M68.68,78.78c-0.22-0.12-0.46-0.24-0.69-0.36c0-0.13,0-0.27,0-0.4c0.34-0.22,0.69-0.45,1.03-0.67
		c0.64,0.09,1,0.39,0.81,1.09l-0.1-0.01C69.35,78.56,69.04,78.74,68.68,78.78z"/>
	<path class="st40" d="M92.59,36.01c0.34,0.13,0.67,0.25,1.02,0.39c0.04,0.28,0.04,0.55-0.22,0.73
		C92.67,37.08,91.8,37.15,92.59,36.01z"/>
	<path class="st41" d="M31.73,65.32c0.16-0.52-0.07-1.2,0.49-1.58c0.09-0.06,0.42,0.06,0.45,0.15
		C32.85,64.61,32.2,64.89,31.73,65.32z"/>
	<path class="st42" d="M65.9,80.52c0.25-0.43,0.64-0.34,1.02-0.24c0.28,0.31,0.33,0.61-0.03,0.91c-0.22,0.01-0.46,0.01-0.69,0.03
		C65.47,81.25,65.78,80.85,65.9,80.52z"/>
	<path class="st43" d="M80.12,18.4c-0.09-0.24-0.18-0.48-0.27-0.7c0.18-0.09,0.36-0.18,0.54-0.27c1.05-0.24,1.11,0.22,0.72,1
		l0.01-0.01C80.79,18.4,80.45,18.4,80.12,18.4z"/>
	<path class="st44" d="M66.94,25.39c0.39-0.12,0.51-1.11,1.14-0.4c0.4,0.45,0.13,0.69-0.39,0.73
		C67.38,25.77,67.09,25.72,66.94,25.39z"/>
	<path class="st33" d="M89.11,40.74c0.04-0.4-0.1-0.9,0.48-1.06c0.22,0.27,0.25,0.66,0.54,0.88c0.01,0.25,0.03,0.52,0.04,0.78
		C89.7,41.36,89.35,41.14,89.11,40.74z"/>
	<path class="st45" d="M69.81,78.46c-0.04-0.54-0.58-0.69-0.81-1.09c1.61-0.88,0.94,0.48,1.05,1.08
		C69.96,78.46,69.89,78.46,69.81,78.46z"/>
	<path class="st46" d="M89.23,17.39c-0.3-0.01-0.6-0.01-0.91-0.03c-0.3-0.13-0.54-0.31-0.58-0.67c0-0.09-0.01-0.19-0.01-0.28
		c0.46-0.33,0.94-0.27,1.42-0.04c0.03,0.13,0.06,0.25,0.09,0.39C89.29,16.97,89.32,17.18,89.23,17.39z"/>
	<path class="st47" d="M89.16,16.36c-0.48,0.01-0.94,0.03-1.42,0.04c-0.36-0.03-0.72-0.06-1.08-0.09
		C87.5,15.95,88.34,15.79,89.16,16.36z"/>
	<path class="st31" d="M32.94,62.84c0.42-0.25,0.3-0.69,0.34-1.08c0.13,0.01,0.27,0.01,0.4,0.03c-0.25,0.49,0.25,1.25-0.45,1.54
		C32.5,63.65,32.97,63.07,32.94,62.84z"/>
	<path class="st33" d="M91.89,22.27c-0.25,0.1-0.51,0.19-0.76,0.3c-0.34-0.1-0.61-0.31-0.88-0.54c0.49-1,1.12,0.04,1.67-0.12
		C91.91,22.03,91.89,22.15,91.89,22.27z"/>
	<path class="st48" d="M93.07,38.63c-0.27-0.01-0.61-0.07-0.64-0.34c-0.04-0.37,0.36-0.28,0.58-0.39
		C93.4,38.11,93.25,38.36,93.07,38.63z"/>
	<path class="st33" d="M92.94,26.75c-0.46-0.51-1.17-0.97-0.31-1.72C91.97,25.75,93.55,26.05,92.94,26.75z"/>
	<path class="st49" d="M65.87,86.75c0.33,0.15,0.37,0.46,0.4,0.78c-0.27,0.34-0.7,0.33-0.85,0.06
		C65.29,87.31,65.56,86.94,65.87,86.75z"/>
	<path class="st50" d="M74.52,30.61c0.6,0.1,1.36-0.37,1.75,0.48C75.68,30.98,75.01,31.13,74.52,30.61z"/>
	<path class="st51" d="M89.23,17.39c0.07-0.21-0.58-0.43,0.01-0.64c0.39,0,0.55,0.22,0.58,0.58C89.62,17.36,89.43,17.37,89.23,17.39
		z"/>
	<path class="st28" d="M81.11,18.43c0.12-0.58,0.12-1.09-0.72-1c0.3-0.34,0.7-0.37,1.12-0.34C81.45,17.55,81.72,18.12,81.11,18.43z"
		/>
	<path class="st52" d="M70.41,80.91c-0.01,0.21-0.01,0.42-0.03,0.64c-0.87,0.43-0.94-0.18-1.02-0.78c0.13-0.09,0.25-0.18,0.39-0.25
		C69.98,80.64,70.2,80.77,70.41,80.91z"/>
	<path class="st0" d="M35.05,58.36c0-0.13-0.01-0.25-0.01-0.39c0.27-0.36,0.66-0.34,1.05-0.31c0,0.22,0,0.46,0,0.69
		C35.74,58.41,35.39,58.38,35.05,58.36z"/>
	<path class="st53" d="M74.2,29.64c0.12-0.13,0.22-0.28,0.34-0.42c0.22,0.22,0.22,0.45,0.01,0.67c-0.12,0-0.24,0-0.36,0
		C74.16,29.8,74.16,29.73,74.2,29.64z"/>
	<path class="st38" d="M71.32,20.9c-0.07-0.03-0.13-0.09-0.19-0.16c0.12-0.06,0.22-0.12,0.34-0.19l-0.03-0.01
		C71.58,20.7,71.55,20.82,71.32,20.9z"/>
	<path class="st54" d="M19.53,13.46c2.45,1.22,3.27,2.46,2.91,4.15c-0.4,1.9-2.15,3.12-4.62,3.14c-1.15,0-2.32-0.15-3.38-0.64
		c-0.54-0.25-1.52-0.3-0.88-1.37c0.4-0.67,0.55-1.48,1.73-0.84c1.05,0.58,2.27,0.82,3.5,0.3c0.58-0.25,0.99-0.64,0.96-1.3
		c-0.04-0.64-0.48-1-1.09-1.2c-2.99-0.93-3.02-1.03-0.94-3.48c0.21-0.25,0.42-0.52,0.85-1.08c-1.42,0-2.52-0.03-3.65,0.01
		c-0.79,0.01-1.15-0.21-1.15-1.08c0-0.85,0.21-1.27,1.17-1.24c1.84,0.06,3.69,0,5.54,0.03c0.48,0,1.15-0.25,1.37,0.37
		c0.22,0.64,0.22,1.36-0.31,1.94C20.87,11.9,20.25,12.65,19.53,13.46z"/>
	<path class="st1" d="M65.09,67.06c-7.32,0.13-13.55-5.66-14.18-12.91c-0.57-6.54,3.29-12.16,8.6-14.43
		c5.77-2.45,12.23-0.87,16.49,4c1.08,1.22,1.82,2.64,2.41,4.17c0.3,0.78,0.43,1.55-0.51,1.88c-0.91,0.31-1.31-0.36-1.64-1.11
		c-0.37-0.84-0.79-1.67-1.28-2.44c-2.99-4.59-8.8-6.48-14.01-4.6c-5.05,1.81-8.38,7.07-7.83,12.38c0.55,5.47,4.65,9.77,10.05,10.61
		C70.08,65.68,76.22,60.96,77,54c0.1-0.9,0.15-1.93,1.34-1.78c1.15,0.15,0.94,1.11,0.9,2.05C78.84,60.87,72.58,67.24,65.09,67.06z"
		/>
	<path class="st1" d="M65.11,62.87c-5.62,0.01-10.02-4.33-10.04-9.92c-0.03-5.66,4.45-10.22,10.04-10.17
		c5.47,0.04,10.08,4.68,10.02,10.08C75.06,58.42,70.63,62.87,65.11,62.87z"/>
	<path class="st29" d="M90.53,31.98c-0.12-0.12-0.24-0.24-0.36-0.34c-0.12-0.34-0.57-0.36-0.69-0.7c0-0.21,0-0.43-0.01-0.64
		c0.24-0.25,0.48-0.22,0.72,0c0.37,0.46,0.91,0.25,1.37,0.31c0.21,0.25,0.18,0.49-0.07,0.7C91.19,31.55,91.06,32.04,90.53,31.98z"/>
	<path class="st55" d="M80.82,22.27c0-0.12-0.01-0.22-0.01-0.34c0.01-0.55,0.06-1.08,0.82-1c0.42,0.04,0.6,0.33,0.55,0.72
		C82.05,22.51,81.33,22.2,80.82,22.27z"/>
	<path class="st46" d="M87.41,28.86c0.52,0.06,1.22-0.24,1.34,0.64c0.04,0.3-0.06,0.58-0.39,0.67c-0.54,0.16-0.88-0.03-1.02-0.58
		C87.19,29.32,87.22,29.08,87.41,28.86z"/>
	<path class="st56" d="M87.05,21.93c0.37,0.01,0.67,0.15,0.63,0.58c-0.03,0.34-0.31,0.42-0.61,0.42c-0.28,0-0.58-0.04-0.63-0.4
		C86.39,22.09,86.68,21.96,87.05,21.93z"/>
	<path class="st57" d="M91.5,31.29c0.03-0.24,0.04-0.48,0.07-0.7c0.43,0,0.94-0.09,1.02,0.55c0.03,0.27,0.03,0.6-0.28,0.72
		C91.77,32.07,91.62,31.7,91.5,31.29z"/>
	<path class="st58" d="M84.6,18.85c0.43-0.01,0.72,0.12,0.66,0.58c-0.03,0.25-0.22,0.39-0.46,0.4c-0.39,0.03-0.67-0.22-0.73-0.57
		C83.97,18.85,84.39,18.92,84.6,18.85z"/>
	<path class="st59" d="M86.63,28.13c-0.06,0.34-0.39,0.37-0.75,0.33c-0.3-0.03-0.54-0.19-0.49-0.54c0.06-0.42,0.4-0.51,0.75-0.46
		C86.45,27.5,86.66,27.68,86.63,28.13z"/>
	<path class="st60" d="M81.18,27.47c-0.48-0.07-1.17,0.25-1.31-0.43c-0.15-0.69,0.52-0.58,0.94-0.66
		C81.2,26.65,81.18,27.07,81.18,27.47z"/>
	<path class="st56" d="M89.05,24.72c-0.4,0.13-0.57,0.04-0.6-0.25c-0.03-0.48,0.15-0.78,0.67-0.79c0.22,0,0.49,0.01,0.54,0.3
		C89.74,24.51,89.26,24.59,89.05,24.72z"/>
	<path class="st61" d="M78.09,29.19c0-0.67,0.49-0.7,0.94-0.61c0.55,0.1,0.4,0.57,0.34,0.96c-0.1,0-0.19,0.03-0.3,0.07
		C78.75,29.46,78.42,29.32,78.09,29.19z"/>
	<path class="st62" d="M90.92,33.71c-0.55,0.55-0.87-0.01-0.91-0.34c-0.07-0.49,0.4-0.57,0.82-0.55c0.12,0.09,0.24,0.19,0.36,0.28
		C91.4,33.43,91.04,33.52,90.92,33.71z"/>
	<path class="st63" d="M79.7,31.2c-0.46,0.01-1.06,0.3-1.25-0.39c-0.12-0.43,0.33-0.49,0.63-0.61c0.22,0.13,0.43,0.25,0.66,0.39
		C79.99,30.83,79.94,31.02,79.7,31.2z"/>
	<path class="st64" d="M87.75,16.7c0.19,0.22,0.39,0.45,0.58,0.67c-0.34,0.04-0.28,1.08-0.94,0.34
		C86.86,17.12,87.46,16.97,87.75,16.7z"/>
	<path class="st65" d="M83.53,19.75c-0.09,0.27-0.31,0.43-0.63,0.34c-0.31-0.09-0.73-0.19-0.58-0.66c0.1-0.33,0.46-0.28,0.73-0.27
		C83.35,19.16,83.59,19.33,83.53,19.75z"/>
	<path class="st55" d="M82.56,24c-0.55-0.07-1.34,0.28-1.34-0.76c0.1-0.01,0.15-0.04,0.13-0.1c-0.01-0.06-0.04-0.09-0.07-0.09
		l-0.13-0.09C82.5,22.09,82.56,22.99,82.56,24z"/>
	<path class="st66" d="M90.76,23.7c0.34-0.03,0.58,0.19,0.58,0.45c0,0.27-0.25,0.46-0.58,0.48c-0.33,0-0.55-0.15-0.55-0.46
		C90.2,23.84,90.43,23.68,90.76,23.7z"/>
	<path class="st67" d="M88.35,19.67c-0.37-0.12-0.58-0.39-0.51-0.78c0.01-0.12,0.21-0.3,0.31-0.3c0.37,0.04,0.64,0.25,0.64,0.66
		C88.8,19.51,88.64,19.67,88.35,19.67z"/>
	<path class="st68" d="M86.32,18.52c0.4,0.16,0.73,0.3,0.66,0.73c-0.06,0.27-0.31,0.33-0.52,0.28c-0.36-0.06-0.61-0.31-0.55-0.67
		C85.92,18.73,86.2,18.61,86.32,18.52z"/>
	<path class="st69" d="M82.75,26.69c0.03,0.39-0.16,0.6-0.46,0.63c-0.34,0.03-0.69-0.1-0.75-0.51c-0.03-0.24,0.16-0.39,0.4-0.43
		C82.3,26.32,82.63,26.3,82.75,26.69z"/>
	<path class="st48" d="M81.2,25.3c-0.03-0.55,0.37-0.57,0.76-0.58c0.43-0.01,0.55,0.22,0.49,0.61C82.03,25.33,81.6,25.71,81.2,25.3z
		"/>
	<path class="st70" d="M91.22,26.41c-0.12,0-0.22,0-0.34,0.01c-0.33-0.21-0.45-0.52-0.22-0.84c0.18-0.24,0.54-0.22,0.73-0.01
		C91.65,25.89,91.5,26.18,91.22,26.41z"/>
	<path class="st29" d="M91.91,27.81c0.12,0,0.24,0,0.36,0c-0.36,0.48,0.04,0.99-0.06,1.46c-0.4,0.1-0.67-0.12-0.96-0.36
		c-0.01-0.27-0.01-0.52-0.03-0.79C91.35,27.84,91.55,27.65,91.91,27.81z"/>
	<path class="st71" d="M90.49,21.11c-0.25,0-0.43-0.12-0.51-0.36c-0.09-0.37,0.13-0.52,0.45-0.54c0.24-0.01,0.42,0.18,0.43,0.42
		C90.86,20.85,90.77,21.06,90.49,21.11z"/>
	<path class="st72" d="M86.95,25.99c0.04-0.34,0.34-0.19,0.51-0.21c0.21-0.03,0.48-0.03,0.49,0.28c0.01,0.27-0.18,0.42-0.4,0.43
		C87.22,26.51,87.08,26.26,86.95,25.99z"/>
	<path class="st73" d="M85.96,25.84c0.21,0.31,0.28,0.66-0.15,0.82c-0.15,0.06-0.48-0.09-0.57-0.24c-0.28-0.45,0.19-0.51,0.42-0.69
		C85.86,25.54,85.95,25.59,85.96,25.84z"/>
	<path class="st74" d="M91.25,28.93c0.42-0.13,0.67,0.15,0.96,0.36c-0.25,0.28-0.39,0.82-0.87,0.61
		C91.19,29.83,91.28,29.26,91.25,28.93z"/>
	<path class="st75" d="M89.77,26.1c-0.01,0.25-0.12,0.43-0.37,0.46c-0.24,0.03-0.43-0.1-0.46-0.36c-0.03-0.25,0.1-0.42,0.37-0.42
		C89.52,25.78,89.76,25.8,89.77,26.1z"/>
	<path class="st57" d="M90.19,30.28c-0.24,0-0.48,0-0.72,0c-0.37-0.84,0.46-0.94,0.75-0.87C90.83,29.59,90.46,29.99,90.19,30.28z"/>
	<path class="st76" d="M84.95,29.56c0.06,0.33,0.19,0.73-0.19,0.9c-0.49,0.22-0.69-0.19-0.84-0.57
		C84.17,29.52,84.54,29.5,84.95,29.56z"/>
	<path class="st77" d="M84.05,26.08c0.22,0.06,0.45,0.1,0.46,0.39c0.01,0.33-0.19,0.52-0.49,0.57c-0.24,0.03-0.42-0.12-0.45-0.39
		C83.54,26.3,83.74,26.14,84.05,26.08z"/>
	<path class="st78" d="M87.66,24.66c-0.81,0.7-0.84,0.06-0.9-0.52c0.25-0.48,0.61-0.36,0.94-0.13
		C87.99,24.2,87.93,24.45,87.66,24.66z"/>
	<path class="st79" d="M83.45,21.88c-0.42-0.22-1.27-0.21-0.55-1.03C84.02,20.69,83.94,21.18,83.45,21.88z"/>
	<path class="st80" d="M89.08,31.52c-0.39,0.46-0.82,0.27-1.25,0.09c0.3-0.81,0.75-0.66,1.25-0.22V31.52z"/>
	<path class="st46" d="M89.08,31.52v-0.13c0.13-0.15,0.27-0.3,0.4-0.45c0.36,0.1,0.99-0.04,0.69,0.7
		C89.82,31.52,89.4,32.07,89.08,31.52z"/>
	<path class="st29" d="M90.92,33.71c0.09-0.21,0.16-0.42,0.25-0.61c0.33-0.49,0.69-0.57,1.09-0.07
		C91.92,33.46,91.44,33.64,90.92,33.71z"/>
	<path class="st72" d="M83.54,23.63c-0.67-0.18-0.63-0.57-0.28-1.05c0.28-0.18,0.58-0.18,0.75,0.1
		C84.23,23.15,83.93,23.44,83.54,23.63z"/>
	<path class="st81" d="M89.28,22.75c-0.15,0.22-0.43,0.18-0.7,0.15c-0.27-0.03-0.48-0.21-0.28-0.4c0.16-0.16,0.51-0.16,0.78-0.16
		C89.2,22.35,89.38,22.47,89.28,22.75z"/>
	<path class="st82" d="M87.4,31.62c-0.24,0.42-0.54,0.7-1.05,0.34c-0.21-0.34-0.16-0.66,0.19-0.79c0.27-0.1,0.66-0.21,0.81,0.25
		C87.32,31.5,87.32,31.58,87.4,31.62z"/>
	<path class="st83" d="M86.83,21.24c-0.24-0.04-0.45-0.18-0.4-0.42c0.04-0.16,0.27-0.28,0.4-0.43c0.13,0.15,0.36,0.27,0.4,0.45
		C87.29,21.09,87.05,21.21,86.83,21.24z"/>
	<path class="st51" d="M81.03,29.96c0.16,0.21,0.49,0.36,0.36,0.69c-0.16,0.43-0.54,0.28-0.85,0.22c-0.43-0.58-0.01-0.78,0.45-0.94
		L81.03,29.96z"/>
	<path class="st78" d="M86.68,30.2c-0.57,0.13-0.84-0.18-1-0.66c0.21-0.1,0.4-0.21,0.61-0.31c0.4,0.22,0.82,0.45,0.37,1L86.68,30.2z
		"/>
	<path class="st55" d="M83.54,23.63c0.54-0.52,0.57-0.9-0.28-1.05c0.33-0.37,0.73-0.45,0.94,0.03
		C84.41,23.14,84.27,23.63,83.54,23.63z"/>
	<path class="st84" d="M80.15,28.86c0.24-0.4,0.63-0.33,1-0.33C81.06,29.38,80.75,29.52,80.15,28.86z"/>
	<path class="st85" d="M81.06,20.31c-0.06-0.06-0.12-0.09-0.19-0.12c-0.21-0.22-0.28-0.48-0.01-0.69c0.34-0.28,0.69-0.28,0.97,0.1
		C81.84,20.13,81.35,20.12,81.06,20.31z"/>
	<path class="st33" d="M81.81,19.6c-0.6-0.27-1-0.19-0.96,0.58c-0.9-0.69,0.04-0.96,0.31-1.37C81.52,18.95,81.78,19.19,81.81,19.6z"
		/>
	<path class="st86" d="M90.53,18.43c0.34,0.66,0.09,0.97-0.6,1.03C89.5,18.75,89.41,18.24,90.53,18.43z"/>
	<path class="st87" d="M90.08,27.51c0.01,0.21,0.03,0.42,0.06,0.63c-0.36,0.13-0.84,0.36-0.88-0.24
		C89.2,27.29,89.71,27.45,90.08,27.51z"/>
	<path class="st88" d="M88.28,27.72c0.01,0.25-0.09,0.42-0.34,0.48c-0.24,0.06-0.45-0.01-0.52-0.27c-0.09-0.34,0.09-0.55,0.4-0.58
		C88.05,27.32,88.23,27.47,88.28,27.72z"/>
	<path class="st89" d="M85.01,24.63c0.06-0.25,0.09-0.61,0.48-0.48c0.33,0.1,0.55,0.36,0.48,0.76
		C85.41,25.6,85.26,24.94,85.01,24.63z"/>
	<path class="st62" d="M85.45,21.03c-0.03,0.24-0.15,0.45-0.4,0.45c-0.27,0-0.42-0.19-0.39-0.43c0.01-0.13,0.18-0.3,0.3-0.34
		C85.23,20.61,85.39,20.76,85.45,21.03z"/>
	<path class="st56" d="M87.66,24.66c0.09-0.84-0.39-0.72-0.9-0.52c0.18-0.6,0.64-0.61,1.05-0.34S88.14,24.44,87.66,24.66z"/>
	<path class="st90" d="M88.58,20.52c0.25-0.03,0.43,0.07,0.46,0.33c0.04,0.3-0.18,0.4-0.39,0.4c-0.13,0-0.34-0.13-0.37-0.25
		C88.2,20.78,88.32,20.58,88.58,20.52z"/>
	<path class="st55" d="M83.45,21.88c0.36-0.64,0.16-0.97-0.55-1.03c0.31-0.34,0.69-0.43,0.93,0C84.05,21.25,84.02,21.7,83.45,21.88z
		"/>
	<path class="st91" d="M90.53,18.43c-0.78,0-0.84,0.43-0.6,1.03c-0.57-0.27-0.58-0.72-0.27-1.14
		C89.92,17.98,90.28,18.12,90.53,18.43z"/>
	<path class="st89" d="M91.91,27.81c-0.22,0.1-0.45,0.22-0.69,0.33c-0.1-0.1-0.21-0.22-0.31-0.33
		C91.23,27.02,91.58,26.96,91.91,27.81z"/>
	<path class="st92" d="M85.27,23.21c-0.27-0.06-0.36-0.22-0.33-0.48c0.04-0.27,0.25-0.37,0.48-0.3c0.12,0.04,0.27,0.25,0.25,0.37
		C85.68,23.03,85.56,23.24,85.27,23.21z"/>
	<path class="st46" d="M87.35,31.43c-0.58-0.27-0.96-0.16-1,0.54c-0.58-0.6-0.33-0.91,0.36-1.08
		C87.04,30.95,87.32,31.04,87.35,31.43z"/>
	<path class="st93" d="M90.25,22.03c0.46-0.09,0.84-0.06,0.88,0.54C90.49,22.94,90.19,22.79,90.25,22.03z"/>
	<path class="st48" d="M84.32,27.92c0.27,0.06,0.36,0.22,0.31,0.48c-0.04,0.27-0.27,0.37-0.48,0.3c-0.12-0.04-0.27-0.25-0.25-0.37
		C83.9,28.1,84.02,27.89,84.32,27.92z"/>
	<path class="st17" d="M80.97,29.93c-0.3,0.24-0.51,0.52-0.45,0.94l-0.07,0.09c-0.13,0.27-0.31,0.48-0.66,0.33l-0.09-0.07
		c0.01-0.19,0.03-0.4,0.03-0.6C80.14,30.37,80.34,29.77,80.97,29.93z"/>
	<path class="st17" d="M86.68,30.23c0.1-0.42-0.03-0.75-0.37-1c0.37-0.12,0.75-0.25,1.11-0.37c-0.01,0.24-0.04,0.48-0.06,0.73
		C87.13,29.8,86.9,30.01,86.68,30.23z"/>
	<path class="st94" d="M82.87,28.5c0.04,0.28-0.15,0.4-0.37,0.42c-0.13,0-0.36-0.13-0.39-0.24c-0.06-0.21,0.01-0.45,0.3-0.49
		C82.66,28.13,82.82,28.23,82.87,28.5z"/>
	<path class="st95" d="M85.01,24.63c0.27,0.25,0.57,0.4,0.94,0.28c0,0.31,0,0.63,0.01,0.94c-0.1,0-0.21-0.04-0.3-0.12
		C85.45,25.36,84.86,25.21,85.01,24.63z"/>
	<path class="st46" d="M87.74,33.28c-0.04,0.64-0.37,0.79-0.82,0.73c-0.31-0.03-0.52-0.22-0.49-0.55c0.04-0.45,0.31-0.72,0.76-0.73
		C87.63,32.73,87.69,33.07,87.74,33.28z"/>
	<path class="st96" d="M85.04,35.13c-1.36-0.58-0.48-2.06-1.15-2.91c-0.01-0.07-0.03-0.15-0.04-0.22
		C85.15,32.7,84.54,34.13,85.04,35.13L85.04,35.13z"/>
	<path class="st97" d="M92.15,40.33c-0.09,0.3-0.21,0.61-0.52,0.61c-0.46,0-0.73-0.33-0.73-0.78c0-0.34,0.28-0.46,0.6-0.45
		C91.89,39.73,92.12,39.94,92.15,40.33z"/>
	<path class="st98" d="M89.28,37.46c-0.46-0.16-0.45-0.49-0.45-0.75c0-0.31,0.19-0.54,0.55-0.48c0.34,0.06,0.46,0.34,0.34,0.64
		C89.64,37.1,89.43,37.28,89.28,37.46z"/>
	<path class="st99" d="M91.19,35.13c-0.03,0.27,0,0.64-0.4,0.55c-0.21-0.06-0.46-0.34-0.52-0.58c-0.09-0.34,0.27-0.49,0.51-0.54
		C91.16,34.51,91.19,34.83,91.19,35.13z"/>
	<path class="st100" d="M91.18,38.85c-0.3-0.1-0.57-0.25-0.54-0.57c0.03-0.36,0.37-0.37,0.64-0.37c0.3-0.01,0.57,0.1,0.46,0.48
		C91.67,38.67,91.46,38.85,91.18,38.85z"/>
	<path class="st101" d="M88.16,33.24c0.01-0.25,0.13-0.42,0.4-0.45c0.24-0.03,0.46-0.01,0.52,0.28c0.07,0.36-0.1,0.54-0.45,0.54
		C88.38,33.61,88.19,33.5,88.16,33.24z"/>
	<path class="st102" d="M89.14,38.91c-0.36-0.27-0.37-0.51,0-0.79c0.51-0.39,0.7,0.1,0.99,0.33C89.97,38.94,89.71,39.26,89.14,38.91
		z"/>
	<path class="st103" d="M91.09,37.12c-0.34,0.03-0.55-0.1-0.52-0.45c0.01-0.13,0.16-0.33,0.27-0.34c0.3-0.06,0.57,0.1,0.64,0.4
		C91.53,36.99,91.34,37.12,91.09,37.12z"/>
	<path class="st104" d="M87.37,35.64c-0.24,0-0.43-0.1-0.49-0.34c-0.09-0.36,0.13-0.52,0.43-0.54c0.24,0,0.42,0.18,0.43,0.42
		C87.75,35.4,87.63,35.61,87.37,35.64z"/>
	<path class="st105" d="M81.75,34.7c-0.31-0.01-0.51-0.18-0.52-0.49c0-0.27,0.21-0.42,0.42-0.34c0.18,0.06,0.39,0.25,0.45,0.42
		C82.18,34.51,82.02,34.68,81.75,34.7z"/>
	<path class="st106" d="M83.96,33.83c0.03,0.34-0.15,0.54-0.46,0.55c-0.22,0.01-0.43-0.1-0.46-0.37c-0.03-0.34,0.19-0.52,0.48-0.57
		C83.75,33.42,83.93,33.56,83.96,33.83z"/>
	<path class="st107" d="M83.84,32c-0.03,0.09-0.01,0.16,0.04,0.22c-0.25,0.19-0.45,0.54-0.84,0.28c-0.21-0.13-0.22-0.39-0.07-0.58
		C83.27,31.56,83.56,31.88,83.84,32z"/>
	<path class="st16" d="M79.79,31.29c0.22-0.1,0.45-0.21,0.66-0.33c0.3,0.49,0.22,0.88-0.39,0.96C79.45,32,79.67,31.59,79.79,31.29z"
		/>
	<path class="st108" d="M82.26,29.95c0.36-0.01,0.84-0.3,0.91,0.34c0.01,0.12-0.16,0.34-0.28,0.36c-0.63,0.13-0.58-0.33-0.61-0.73
		C82.27,29.93,82.26,29.95,82.26,29.95z"/>
	<path class="st109" d="M83.72,35.27c0.24,0.01,0.43,0.1,0.46,0.36c0.03,0.24-0.1,0.43-0.36,0.45c-0.24,0.01-0.43-0.09-0.46-0.36
		C83.33,35.48,83.48,35.33,83.72,35.27z"/>
	<path class="st110" d="M87.59,36.52c0.28,0.04,0.4,0.22,0.37,0.46c-0.03,0.25-0.24,0.36-0.46,0.34c-0.25-0.01-0.37-0.21-0.34-0.45
		C87.17,36.6,87.4,36.55,87.59,36.52z"/>
	<path class="st51" d="M90.13,40.56c-0.82,0.09-0.75-0.34-0.54-0.88c0.09,0.03,0.16,0.01,0.25-0.03c0.19-0.19,0.28-0.16,0.27,0.12
		C90.11,40.02,90.13,40.29,90.13,40.56z"/>
	<path class="st111" d="M88.14,38.6c0.03,0.25-0.07,0.43-0.31,0.46c-0.28,0.04-0.4-0.18-0.42-0.39c0-0.12,0.13-0.33,0.25-0.37
		C87.89,38.24,88.1,38.33,88.14,38.6z"/>
	<path class="st79" d="M86.19,37.22c-0.06,0.25-0.24,0.36-0.48,0.33c-0.28-0.04-0.36-0.27-0.3-0.48c0.03-0.12,0.25-0.25,0.37-0.25
		C86.01,36.82,86.22,36.93,86.19,37.22z"/>
	<path class="st112" d="M85.02,35.15c0.33-0.07,0.69-0.25,0.88,0.16c0.1,0.22-0.04,0.46-0.31,0.48
		C85.12,35.85,85.08,35.48,85.02,35.15C85.04,35.13,85.02,35.15,85.02,35.15z"/>
	<path class="st113" d="M89.13,35.34c-0.28,0.03-0.33-0.19-0.31-0.42c0.01-0.15,0.09-0.37,0.18-0.4c0.22-0.06,0.42,0.04,0.45,0.31
		C89.47,35.09,89.41,35.27,89.13,35.34z"/>
	<path class="st114" d="M81.88,32.37c0.03,0.25-0.07,0.43-0.33,0.46c-0.28,0.04-0.4-0.18-0.42-0.39c0-0.12,0.13-0.33,0.25-0.37
		C81.63,32,81.82,32.1,81.88,32.37z"/>
	<path class="st115" d="M85.54,31.83c-0.07,0.42-0.27,0.52-0.49,0.52c-0.27,0-0.4-0.16-0.4-0.42c0-0.22,0.16-0.27,0.34-0.24
		C85.18,31.73,85.38,31.79,85.54,31.83z"/>
	<path class="st33" d="M90.11,39.75c-0.1-0.01-0.19-0.06-0.27-0.12c-0.24-0.24-0.46-0.49-0.7-0.73c0.39-0.03,0.75-0.12,0.99-0.46
		C90.13,38.88,90.11,39.32,90.11,39.75z"/>
	<path class="st116" d="M74.56,29.89c0-0.22-0.01-0.45-0.01-0.67c0.13,0,0.27,0,0.4,0c0.15,0.21,0.15,0.43,0.01,0.64
		C74.83,29.87,74.7,29.87,74.56,29.89z"/>
	<path class="st117" d="M77.69,31.05c-0.09,0.03-0.16,0.06-0.24,0.06c-0.01,0-0.06-0.1-0.04-0.13c0.04-0.09,0.1-0.15,0.16-0.24
		C77.61,30.86,77.64,30.95,77.69,31.05z"/>
	<path class="st118" d="M74.97,29.87c0-0.21,0-0.43-0.01-0.64c0.12,0.1,0.24,0.22,0.36,0.33C75.21,29.65,75.09,29.76,74.97,29.87z"
		/>
	<path class="st119" d="M77.75,26.05c-0.45,0.15-0.91,0.69-1.36,0.09c-0.19-0.27-0.16-0.72,0.13-0.93c0.58-0.4,0.76,0.22,1.06,0.51
		C77.76,25.77,77.8,25.89,77.75,26.05z"/>
	<path class="st33" d="M78.75,18.78c0.12,0,0.22,0,0.34,0.03c0.25,0.39,0.96,0.6,0.52,1.27c-0.12,0.19-0.34,0.42-0.55,0.28
		C78.45,19.96,78.84,19.31,78.75,18.78z"/>
	<path class="st120" d="M74.22,26.42c-0.57,0.37-1.14,0.34-1.7-0.01c0.24-1.3,1.03-0.57,1.64-0.45
		C74.32,26.11,74.35,26.26,74.22,26.42z"/>
	<path class="st121" d="M74.22,26.42c-0.01-0.15-0.04-0.3-0.06-0.46c0.16-0.58,0.6-0.63,1.02-0.4c0.43,0.22,0.43,0.6,0.07,0.94
		C74.91,26.68,74.56,26.71,74.22,26.42z"/>
	<path class="st122" d="M71.32,20.9c0.04-0.12,0.07-0.24,0.12-0.37c0.61,0.16,1.55-0.51,1.73,0.7C72.47,21.64,71.9,21.24,71.32,20.9
		z"/>
	<path class="st123" d="M76.04,20c0.3,0.1,0.52,0.3,0.45,0.61c-0.06,0.3-0.28,0.49-0.61,0.43c-0.27-0.04-0.34-0.27-0.34-0.51
		C75.55,20.22,75.7,20.02,76.04,20z"/>
	<path class="st124" d="M77.75,26.05c-0.04-0.1-0.1-0.22-0.15-0.33c0.15-0.52,0.51-0.78,1-0.58c0.55,0.19,0.36,0.6,0.13,0.96
		c-0.22,0.21-0.46,0.19-0.69,0.01C77.95,26.05,77.85,26.02,77.75,26.05z"/>
	<path class="st125" d="M72.19,26.42c-0.31,0.69-0.76,0.82-1.36,0.33C71.04,25.63,71.61,25.99,72.19,26.42z"/>
	<path class="st126" d="M78.97,27.78c-0.64-0.07-1.33-0.13-0.58-1c0.24-0.15,0.51-0.24,0.7,0.04
		C79.31,27.17,79.39,27.51,78.97,27.78z"/>
	<path class="st123" d="M71.86,24.69c-0.06,0.33-0.25,0.51-0.58,0.46c-0.34-0.04-0.48-0.33-0.39-0.61c0.06-0.16,0.3-0.37,0.48-0.39
		C71.69,24.12,71.86,24.36,71.86,24.69z"/>
	<path class="st127" d="M76.18,21.78c0.31,0.06,0.52,0.22,0.52,0.55c0,0.25-0.12,0.45-0.37,0.48c-0.34,0.06-0.55-0.15-0.61-0.45
		C75.64,22.03,75.86,21.85,76.18,21.78z"/>
	<path class="st128" d="M75.68,27.81c-0.09,0.3-0.06,0.69-0.54,0.67c-0.43-0.01-0.48-0.37-0.55-0.69c-0.22-0.16-0.19-0.25,0.07-0.27
		c0.31-0.03,0.63-0.04,0.94-0.07C75.64,27.59,75.65,27.69,75.68,27.81z"/>
	<path class="st106" d="M80.42,23c0.04,0.37,0.24,0.82-0.31,0.99c-0.24,0.07-0.49-0.01-0.54-0.27C79.45,23.03,79.96,23.03,80.42,23
		C80.43,23.02,80.42,23,80.42,23z"/>
	<path class="st129" d="M78.97,27.78c0.34-0.64,0.06-0.93-0.58-1c-0.12-0.22-0.22-0.45-0.34-0.69c0.22,0,0.46-0.01,0.69-0.01
		C79.15,26.6,80,27.07,78.97,27.78z"/>
	<path class="st119" d="M76.65,28.22c-0.13-0.13-0.25-0.27-0.39-0.39c0.06-0.25,0.04-0.61,0.45-0.58c0.3,0.01,0.52,0.22,0.54,0.54
		C77.25,28.16,76.91,28.14,76.65,28.22z"/>
	<path class="st67" d="M69.71,24.44c0.28,0.03,0.39,0.25,0.37,0.46c-0.01,0.31-0.21,0.51-0.57,0.48c-0.27-0.03-0.42-0.22-0.4-0.46
		C69.17,24.63,69.35,24.41,69.71,24.44z"/>
	<path class="st130" d="M77.72,20.75c-0.24-0.01-0.36-0.21-0.36-0.43c0-0.24,0.16-0.46,0.4-0.4c0.16,0.04,0.39,0.25,0.4,0.42
		C78.19,20.54,78,20.72,77.72,20.75z"/>
	<path class="st114" d="M77.89,22.48c-0.21-0.04-0.34-0.24-0.33-0.46c0.01-0.25,0.22-0.37,0.48-0.36c0.3,0.01,0.37,0.24,0.36,0.46
		C78.39,22.38,78.21,22.51,77.89,22.48z"/>
	<path class="st131" d="M76.88,23.99c-0.03,0.37-0.36,0.37-0.6,0.45c-0.4,0.15-0.25-0.22-0.27-0.37c-0.01-0.24,0.15-0.42,0.4-0.42
		C76.64,23.65,76.86,23.69,76.88,23.99z"/>
	<path class="st132" d="M80.08,21.27c0.07,0.36,0.34,0.79-0.25,0.96c-0.24,0.06-0.46-0.07-0.49-0.33
		C79.24,21.31,79.69,21.31,80.08,21.27C80.09,21.28,80.08,21.27,80.08,21.27z"/>
	<path class="st133" d="M74.28,24.18c0.12-0.09,0.27-0.3,0.45-0.31c0.22-0.03,0.42,0.16,0.42,0.42c0,0.25-0.19,0.42-0.43,0.42
		C74.47,24.71,74.31,24.56,74.28,24.18z"/>
	<path class="st64" d="M78.25,23.39c0.25,0.04,0.42,0.19,0.4,0.45c-0.03,0.27-0.24,0.4-0.48,0.34c-0.13-0.03-0.3-0.21-0.31-0.34
		C77.82,23.59,78,23.44,78.25,23.39z"/>
	<path class="st114" d="M67.99,23.35c0.03,0.25-0.07,0.43-0.33,0.48c-0.3,0.04-0.4-0.19-0.4-0.4c0-0.12,0.13-0.33,0.27-0.37
		C67.74,22.97,67.95,23.06,67.99,23.35z"/>
	<path class="st70" d="M69.42,22.78c0.25,0.06,0.36,0.22,0.31,0.48c-0.04,0.27-0.27,0.37-0.48,0.3c-0.12-0.03-0.25-0.25-0.24-0.37
		C69.02,22.96,69.16,22.75,69.42,22.78z"/>
	<path class="st134" d="M74.41,22.14c0.25,0.03,0.45,0.15,0.45,0.4c0.01,0.27-0.19,0.43-0.45,0.39c-0.13-0.03-0.31-0.18-0.34-0.31
		C74,22.36,74.14,22.18,74.41,22.14z"/>
	<path class="st135" d="M72.92,22.29c0.28,0.06,0.37,0.25,0.3,0.49c-0.04,0.13-0.19,0.3-0.31,0.33c-0.3,0.06-0.42-0.18-0.42-0.4
		C72.49,22.45,72.64,22.27,72.92,22.29z"/>
	<path class="st38" d="M73.86,20.15c0.3-0.33,0.6-0.27,0.85,0.06c0.28,0.37,0.3,0.73-0.13,1.02c-0.3-0.25-0.43-0.63-0.63-0.96
		L73.86,20.15z"/>
	<path class="st136" d="M73.95,20.27c0.51,0.12,0.75,0.42,0.63,0.96c-0.22,0-0.46,0-0.69,0C73.91,20.91,73.94,20.6,73.95,20.27z"/>
	<path class="st92" d="M81.27,23.03c0.31-0.04,0.67-0.27,0.85,0.19c0.03,0.07-0.01,0.25-0.09,0.3c-0.4,0.3-0.58-0.07-0.81-0.3
		C81.26,23.18,81.27,23.11,81.27,23.03z"/>
	<path class="st131" d="M73.5,24.35c0.03,0.25-0.09,0.42-0.33,0.46c-0.3,0.06-0.37-0.18-0.39-0.39c0-0.12,0.13-0.33,0.25-0.36
		C73.25,24,73.46,24.08,73.5,24.35z"/>
	<path class="st137" d="M71.84,28.77c-0.39-0.09-0.4-0.43-0.36-0.78c0.03-0.31,0.22-0.52,0.55-0.46c0.43,0.09,0.48,0.43,0.42,0.78
		C72.43,28.62,72.25,28.81,71.84,28.77z"/>
	<path class="st138" d="M74.22,27.81c-0.22,0.42-0.46,0.81-1.02,0.48c-0.46-0.27-0.48-0.57-0.01-0.87
		C73.68,27.17,73.98,27.41,74.22,27.81z"/>
	<path class="st137" d="M74.22,27.81c-0.28-0.27-0.64-0.4-1.03-0.39c0.54-0.6,1-0.07,1.48,0.12c-0.01,0.09-0.04,0.18-0.07,0.27
		C74.47,27.81,74.35,27.81,74.22,27.81z"/>
	<path class="st139" d="M37.46,58.33c0.42,0.06,0.99-0.1,1.08,0.55c0.03,0.24-0.16,0.43-0.42,0.43c-0.72,0-0.52-0.61-0.63-1
		C37.47,58.32,37.46,58.33,37.46,58.33z"/>
	<path class="st140" d="M35.05,58.36c0.33-0.25,0.67-0.31,1.02-0.03c-0.01,0.21-0.01,0.42-0.03,0.63c-0.3,0.16-0.54,0.49-0.94,0.3
		C35.08,58.96,35.07,58.66,35.05,58.36z"/>
	<path class="st141" d="M37.13,60.07c-0.79,0.48-1.12,0.22-1.03-0.66C36.62,59.33,37.1,59.33,37.13,60.07z"/>
	<path class="st85" d="M33.72,59.92c0.09-0.18,0.18-0.37,0.28-0.55c0.28,0.03,0.57,0.04,0.7,0.36
		C34.45,60.14,34.08,60.02,33.72,59.92z"/>
	<path class="st142" d="M69.38,80.76c0.33,0.27,0.43,0.84,1.02,0.78c-0.12,0.51-1.64,0.33-0.69,1.37c1.17,0.87,0.49,1.34-0.37,1.78
		c-0.12-0.27-0.24-0.54-0.34-0.81c-0.27-0.18-0.48,0.01-0.72,0.1h-0.15h-0.15c0.04-0.49-0.09-0.96-0.34-1.37
		c-0.22-0.33-0.19-0.73-0.36-1.09c-0.13-0.12-0.25-0.22-0.39-0.34c0.01-0.3,0.01-0.6,0.03-0.91c0.01-0.69,0.46-0.9,1.06-0.96
		c0.24,0.4,0.46,0.79,0.7,1.2c0.04,0.42,0.24,0.61,0.66,0.39L69.38,80.76z"/>
	<path class="st112" d="M68.27,84c0.06-0.28-0.15-0.73,0.3-0.79c0.49-0.07,0.39,0.37,0.4,0.67C68.74,83.89,68.59,84.43,68.27,84z"/>
	<path class="st143" d="M67.29,81.53c0.91,0.1,0.58,0.61,0.36,1.09C66.84,82.47,66.74,82.1,67.29,81.53z"/>
	<path class="st144" d="M69.33,80.91c-0.06,0.39-0.27,0.7-0.67,0.54c-0.55-0.24-0.31-0.61,0-0.93
		C68.9,80.65,69.13,80.79,69.33,80.91z"/>
	<path class="st145" d="M68.68,78.78c0.21-0.49,0.51-0.78,1.03-0.34C69.42,78.74,69.26,79.43,68.68,78.78z"/>
	<path class="st0" d="M72.83,52.94c0,4.24-3.63,7.77-7.95,7.74c-4.09-0.03-7.63-3.69-7.63-7.89c0-4.15,3.56-7.65,7.78-7.66
		C69.36,45.13,72.83,48.59,72.83,52.94z"/>
</g>
</svg>
