<?xml version="1.0" encoding="utf-8"?>
<!-- Generator: Adobe Illustrator 28.2.0, SVG Export Plug-In . SVG Version: 6.00 Build 0)  -->
<svg version="1.1" id="Слой_1" xmlns="http://www.w3.org/2000/svg" xmlns:xlink="http://www.w3.org/1999/xlink" x="0px" y="0px"
	 viewBox="0 0 131.5 89.5" style="enable-background:new 0 0 131.5 89.5;" xml:space="preserve">
<style type="text/css">
	.st0{fill:#FFFFFF;}
</style>
<polygon class="st0" points="23.3,45 17.2,57.3 2,57.6 12.6,65.7 2,88.9 23.3,73.7 44.7,88.9 33.4,65.4 44.7,57.6 29.1,57.6 "/>
<polygon class="st0" points="66,45 59.9,57.3 44.7,57.6 55.3,65.7 44.7,88.9 66,73.7 87.4,88.9 76.1,65.4 87.4,57.6 71.8,57.6 "/>
<polygon class="st0" points="108.7,45 102.6,57.3 87.4,57.6 98,65.7 87.4,88.9 108.7,73.7 130.1,88.9 118.9,65.4 130.1,57.6 
	114.5,57.6 "/>
<polygon class="st0" points="44.6,1.1 38.5,13.4 23.3,13.7 34,21.7 23.3,45 44.6,29.8 66.1,45 54.8,21.5 66.1,13.6 50.4,13.6 "/>
<polygon class="st0" points="87.3,1.1 81.2,13.4 66.1,13.7 76.7,21.7 66.1,45 87.3,29.8 108.8,45 97.5,21.5 108.8,13.6 93.1,13.6 
	"/>
</svg>
