<?xml version="1.0" encoding="utf-8"?>
<!-- Generator: Adobe Illustrator 28.0.0, SVG Export Plug-In . SVG Version: 6.00 Build 0)  -->
<svg version="1.1" id="Слой_1" xmlns="http://www.w3.org/2000/svg" xmlns:xlink="http://www.w3.org/1999/xlink" x="0px" y="0px"
	 viewBox="0 0 120 55" style="enable-background:new 0 0 120 55;" xml:space="preserve">
<style type="text/css">
	.st0{fill:#FFFFFF;}
</style>
<g>
	<path class="st0" d="M50.2,33.84H39.94l13.1-17.34c0.29-0.38,0.21-0.94-0.17-1.22c-0.14-0.11-0.33-0.17-0.52-0.17H33.39
		c-1.67,0-3.03,1.36-3.03,3.03c0,1.67,1.36,3.03,3.03,3.03h8.52L28.75,38.52c-0.3,0.38-0.22,0.92,0.16,1.22
		c0.16,0.13,0.35,0.19,0.54,0.17h20.73c1.67-0.08,2.95-1.51,2.87-3.19c-0.08-1.55-1.32-2.79-2.87-2.87v-0.02H50.2z M116.45,15.1
		c-1.67,0-3.03,1.36-3.03,3.03V28.3L97.05,15.31c-0.36-0.3-0.92-0.25-1.22,0.13c-0.13,0.16-0.19,0.35-0.19,0.56v20.89
		c0,1.67,1.36,3.03,3.03,3.03s3.03-1.35,3.03-3.03V26.71l16.37,13.01c0.38,0.3,0.94,0.24,1.24-0.14c0.13-0.16,0.19-0.35,0.19-0.54
		V18.13C119.48,16.45,118.14,15.1,116.45,15.1 M73.13,34.41c-6.93,0-12.1-3.65-12.1-6.92s5.19-6.92,12.1-6.92
		c6.93,0,12.1,3.65,12.1,6.92S80.08,34.41,73.13,34.41 M73.13,14.51c-10.03,0-18.16,5.81-18.16,12.98s8.14,12.98,18.16,12.98
		s18.16-5.81,18.16-12.98S83.15,14.51,73.13,14.51 M13.49,34.42c-3.82,0-6.93-3.09-6.93-6.92s3.09-6.93,6.92-6.93
		s6.93,3.09,6.93,6.92v0.02C20.41,31.32,17.32,34.41,13.49,34.42 M13.49,14.51c-7.17,0-12.98,5.81-12.99,12.98
		c0,7.17,5.81,12.98,12.98,12.99c7.17,0,12.98-5.81,12.99-12.98v-0.02C26.45,20.32,20.65,14.51,13.49,14.51"/>
</g>
</svg>
