<?xml version="1.0" encoding="utf-8"?>
<!-- Generator: Adobe Illustrator 28.2.0, SVG Export Plug-In . SVG Version: 6.00 Build 0)  -->
<svg version="1.1" id="Слой_1" xmlns="http://www.w3.org/2000/svg" xmlns:xlink="http://www.w3.org/1999/xlink" x="0px" y="0px"
	 viewBox="0 0 120 55" style="enable-background:new 0 0 120 55;" xml:space="preserve">
<style type="text/css">
	.st0{fill:#FFFFFF;}
</style>
<g id="tg.svg">
	<path id="Vector" class="st0" d="M35.8,24.6l32.9-13.5c3.3-1.4,14.3-5.9,14.3-5.9s5.1-2,4.7,2.8c-0.1,2-1.3,8.8-2.4,16.3l-3.5,22
		c0,0-0.3,3.2-2.7,3.8c-2.4,0.6-6.3-2-7-2.5c-0.6-0.4-10.6-6.7-14.3-9.8c-1-0.8-2.1-2.5,0.1-4.5c5.1-4.6,11.2-10.4,14.8-14
		c1.7-1.7,3.4-5.6-3.7-0.8L49.1,31.7c0,0-2.3,1.4-6.5,0.1s-9.2-2.9-9.2-2.9S30,26.8,35.8,24.6z"/>
</g>
</svg>
